<svg width="32" height="32" viewBox="0 0 32 32" fill="none" xmlns="http://www.w3.org/2000/svg">
<path d="M16.16 4C9.4528 4 4 9.4528 4 16.16C4 22.8672 9.4528 28.32 16.16 28.32C22.8672 28.32 28.32 22.8672 28.32 16.16C28.32 9.4528 22.8672 4 16.16 4ZM22.1504 20.3328C22.3297 20.5121 22.3297 20.768 22.1504 20.9472L20.9216 22.176C20.7424 22.3553 20.4865 22.3553 20.3072 22.176L16.16 18.0032L11.9872 22.1503C11.8079 22.3296 11.552 22.3296 11.3728 22.1503L10.144 20.9216C9.96471 20.7423 9.96471 20.4864 10.144 20.3071L14.3168 16.16L10.1697 11.9871C9.9904 11.8078 9.9904 11.5519 10.1697 11.3727L11.3984 10.1439C11.5777 9.96462 11.8336 9.96462 12.0129 10.1439L16.16 14.3168L20.3329 10.1439C20.5122 9.96462 20.7681 9.96462 20.9473 10.1439L22.1761 11.3727C22.3554 11.5519 22.3554 11.8078 22.1761 11.9871L18.0032 16.16L22.1504 20.3328Z" fill="#EB5353"/>
</svg>
