<svg width="64" height="64" viewBox="0 0 64 64" fill="none" xmlns="http://www.w3.org/2000/svg">
<path d="M60.16 58.6113H56.576V39.6673C56.576 39.2599 56.4142 38.8692 56.1261 38.5812C55.8381 38.2931 55.4474 38.1313 55.04 38.1313C54.6327 38.1313 54.242 38.2931 53.9539 38.5812C53.6659 38.8692 53.504 39.2599 53.504 39.6673V58.6113H28.416V48.7873C28.416 47.022 27.7148 45.329 26.4665 44.0808C25.2183 42.8326 23.5253 42.1313 21.76 42.1313C19.9947 42.1313 18.3018 42.8326 17.0535 44.0808C15.8053 45.329 15.104 47.022 15.104 48.7873V58.6113H10.496V33.5233H21.76C21.9905 33.5235 22.2182 33.4719 22.426 33.3722C22.6339 33.2725 22.8166 33.1273 22.9607 32.9473L32 21.6475L41.0407 32.9473C41.1846 33.1271 41.3671 33.2722 41.5747 33.3719C41.7823 33.4716 42.0097 33.5233 42.24 33.5233H60.16C60.4298 33.5237 60.695 33.453 60.9288 33.3184C61.1626 33.1837 61.3569 32.9899 61.4919 32.7563C61.627 32.5227 61.6982 32.2577 61.6983 31.9879C61.6984 31.7181 61.6274 31.453 61.4925 31.2193L51.2525 13.2993C51.1175 13.0655 50.9232 12.8713 50.6893 12.7365C50.4554 12.6017 50.19 12.5309 49.92 12.5313H40.448L33.2301 2.90569C33.1793 2.8538 33.125 2.80548 33.0675 2.76105C33.0231 2.70361 32.9748 2.64929 32.9229 2.59849C32.8973 2.57929 32.8666 2.57673 32.841 2.56009C32.7508 2.50398 32.6546 2.45804 32.5543 2.42313C32.4692 2.38527 32.3809 2.35486 32.2906 2.33225C32.0966 2.31177 31.9009 2.31177 31.7069 2.33225C31.6169 2.35466 31.5291 2.38508 31.4445 2.42313C31.3442 2.45804 31.248 2.50398 31.1578 2.56009C31.1322 2.57673 31.1027 2.57929 31.0771 2.59849C31.0253 2.64854 30.9774 2.70246 30.9338 2.75977C30.8756 2.80426 30.8208 2.85304 30.7699 2.90569L23.552 12.5313H14.08C13.81 12.5309 13.5447 12.6017 13.3107 12.7365C13.0768 12.8713 12.8825 13.0655 12.7475 13.2993L2.50754 31.2193C2.37264 31.453 2.30166 31.7181 2.30176 31.9879C2.30186 32.2577 2.37303 32.5227 2.50811 32.7563C2.64319 32.9899 2.83741 33.1837 3.07123 33.3184C3.30505 33.453 3.57021 33.5237 3.84002 33.5233H7.42402V58.6113H3.84002C3.43265 58.6113 3.04196 58.7731 2.75391 59.0612C2.46585 59.3492 2.30402 59.7399 2.30402 60.1473C2.30402 60.5547 2.46585 60.9454 2.75391 61.2334C3.04196 61.5215 3.43265 61.6833 3.84002 61.6833H60.16C60.5674 61.6833 60.9581 61.5215 61.2461 61.2334C61.5342 60.9454 61.696 60.5547 61.696 60.1473C61.696 59.7399 61.5342 59.3492 61.2461 59.0612C60.9581 58.7731 60.5674 58.6113 60.16 58.6113ZM6.48706 30.4513L14.976 15.6033H24.32C24.5586 15.6028 24.7938 15.5471 25.0072 15.4405C25.2206 15.3339 25.4064 15.1793 25.5501 14.9889L32 6.38858L38.4499 14.9889C38.5936 15.1793 38.7795 15.3339 38.9929 15.4405C39.2063 15.5471 39.4415 15.6028 39.68 15.6033H49.024L57.5092 30.4513H42.9773L33.2007 18.2273C33.1635 18.1825 33.1111 18.1607 33.0727 18.1198C33.0379 18.0751 33.0008 18.0324 32.9613 17.9918C32.9229 17.9611 32.8743 17.9534 32.8333 17.9265C32.5863 17.7601 32.294 17.6738 31.9962 17.6795C31.9039 17.6788 31.8118 17.6865 31.721 17.7025C31.6192 17.7219 31.52 17.7528 31.4253 17.7947C31.3358 17.8284 31.25 17.8713 31.1693 17.9227C31.1254 17.9424 31.0827 17.9646 31.0413 17.9892C31.0016 18.0296 30.9644 18.0723 30.9299 18.1172C30.885 18.1498 30.8423 18.1853 30.8019 18.2235L21.024 30.4475L6.48706 30.4513ZM25.344 58.6113H18.176V48.7873C18.176 47.8368 18.5536 46.9252 19.2258 46.253C19.8979 45.5809 20.8095 45.2033 21.76 45.2033C22.7106 45.2033 23.6222 45.5809 24.2943 46.253C24.9664 46.9252 25.344 47.8368 25.344 48.7873V58.6113Z" fill="#0F3290"/>
<path d="M34.5599 38.1311C34.1526 38.1311 33.7619 38.2929 33.4738 38.581C33.1858 38.869 33.0239 39.2597 33.0239 39.6671V49.9071C33.0239 50.3145 33.1858 50.7052 33.4738 50.9932C33.7619 51.2813 34.1526 51.4431 34.5599 51.4431H47.3599C47.7673 51.4431 48.158 51.2813 48.446 50.9932C48.7341 50.7052 48.8959 50.3145 48.8959 49.9071V39.6671C48.8959 39.2597 48.7341 38.869 48.446 38.581C48.158 38.2929 47.7673 38.1311 47.3599 38.1311H34.5599ZM45.8239 48.3711H36.0959V41.2031H45.8239V48.3711Z" fill="#0F3290"/>
</svg>
