<svg width="56" height="56" viewBox="0 0 56 56" fill="none" xmlns="http://www.w3.org/2000/svg">
<path d="M38.4777 28.8144C38.6267 28.9091 38.7929 28.9736 38.9668 29.0041C39.1407 29.0347 39.3189 29.0306 39.4913 28.9922C39.6636 28.9539 39.8267 28.8819 39.9712 28.7805C40.1158 28.679 40.2389 28.5501 40.3336 28.4011L51.5336 10.8025C51.7141 10.5174 51.7808 10.1749 51.7204 9.84289C51.6601 9.51089 51.477 9.21376 51.2076 9.01051L42.2476 2.29051C42.2062 2.25915 42.1536 2.25243 42.1099 2.22555C42.0279 2.17518 41.9403 2.13459 41.8489 2.10459C41.7683 2.07944 41.6854 2.06255 41.6014 2.05419C41.5485 2.03815 41.4946 2.02543 41.4401 2.01611H14.5601C14.5076 2.02321 14.4556 2.03368 14.4044 2.04747C14.3188 2.05556 14.2344 2.07283 14.1524 2.09899C14.0601 2.12926 13.9714 2.16984 13.8881 2.21995C13.8411 2.23911 13.7951 2.2608 13.7504 2.28491L4.79036 9.00491C4.52099 9.20816 4.33794 9.50529 4.27756 9.83729C4.21717 10.1693 4.28389 10.5118 4.46444 10.7969L18.656 33.1006C16.7515 35.2435 15.6397 37.9748 15.5064 40.8386C15.3731 43.7023 16.2262 46.5251 17.9234 48.8357C19.6205 51.1462 22.0589 52.8046 24.8315 53.5339C27.604 54.2633 30.5428 54.0194 33.1572 52.843C35.7716 51.6667 37.9033 49.629 39.1964 47.0703C40.4895 44.5116 40.8656 41.5868 40.2621 38.7842C39.6585 35.9816 38.1118 33.4709 35.8801 31.6712C33.6485 29.8716 30.867 28.8921 28.0001 28.8961C27.5342 28.8978 27.0687 28.9251 26.6057 28.9779L41.7918 5.30331L48.598 10.4083L38.07 26.9574C37.9748 27.1061 37.9099 27.2721 37.8788 27.4459C37.8478 27.6197 37.8513 27.7979 37.8892 27.9703C37.927 28.1428 37.9985 28.3061 38.0995 28.4509C38.2005 28.5957 38.329 28.7192 38.4777 28.8144ZM34.9307 11.0187C34.8619 10.9984 34.7914 10.9841 34.7201 10.9761H21.2801C21.1957 10.9844 21.1124 11.0013 21.0315 11.0265L17.0084 4.70411H38.9761L34.9307 11.0187ZM27.9508 21.8995L22.7104 13.6641H33.2384L27.9508 21.8995ZM37.8561 41.4401C37.8561 43.3894 37.2781 45.295 36.1951 46.9158C35.1121 48.5366 33.5728 49.7999 31.7718 50.5459C29.9709 51.2918 27.9892 51.487 26.0773 51.1067C24.1654 50.7264 22.4093 49.7877 21.0309 48.4094C19.6525 47.031 18.7138 45.2748 18.3335 43.3629C17.9532 41.451 18.1484 39.4693 18.8944 37.6684C19.6403 35.8674 20.9036 34.3281 22.5244 33.2452C24.1452 32.1622 26.0508 31.5841 28.0001 31.5841C30.6131 31.5874 33.1181 32.6268 34.9658 34.4745C36.8134 36.3221 37.8529 38.8271 37.8561 41.4401ZM20.6798 31.275L7.4022 10.4083L14.2062 5.30555L26.2563 24.2425C26.2911 24.2844 26.3285 24.3241 26.3683 24.3612L22.7451 30.0161C22.7328 30.0352 22.7328 30.0576 22.7216 30.0777C22.0047 30.4114 21.321 30.8123 20.6798 31.275Z" fill="white"/>
</svg>
