<svg width="57" height="57" viewBox="0 0 57 57" fill="none" xmlns="http://www.w3.org/2000/svg">
<path d="M42.18 7.06803H45.372V25.08C45.372 25.4428 45.5161 25.7908 45.7727 26.0474C46.0292 26.3039 46.3772 26.448 46.74 26.448C47.1028 26.448 47.4508 26.3039 47.7073 26.0474C47.9639 25.7908 48.108 25.4428 48.108 25.08V5.70003C48.108 5.33722 47.9639 4.98926 47.7073 4.73271C47.4508 4.47616 47.1028 4.33203 46.74 4.33203H42.18C41.8172 4.33203 41.4692 4.47616 41.2127 4.73271C40.9561 4.98926 40.812 5.33722 40.812 5.70003C40.812 6.06285 40.9561 6.4108 41.2127 6.66735C41.4692 6.9239 41.8172 7.06803 42.18 7.06803Z" fill="white"/>
<path d="M28.5 52.212H7.06803V7.06803H10.26C10.6228 7.06803 10.9708 6.9239 11.2274 6.66735C11.4839 6.4108 11.628 6.06285 11.628 5.70003C11.628 5.33722 11.4839 4.98926 11.2274 4.73271C10.9708 4.47616 10.6228 4.33203 10.26 4.33203H5.70003C5.33722 4.33203 4.98926 4.47616 4.73271 4.73271C4.47616 4.98926 4.33203 5.33722 4.33203 5.70003V53.58C4.33203 53.9428 4.47616 54.2908 4.73271 54.5474C4.98926 54.8039 5.33722 54.948 5.70003 54.948H28.5C28.8629 54.948 29.2108 54.8039 29.4674 54.5474C29.7239 54.2908 29.868 53.9428 29.868 53.58C29.868 53.2172 29.7239 52.8693 29.4674 52.6127C29.2108 52.3562 28.8629 52.212 28.5 52.212Z" fill="white"/>
<path d="M14.8201 43.548H21.6601C22.023 43.548 22.3709 43.4039 22.6275 43.1473C22.884 42.8908 23.0281 42.5428 23.0281 42.18C23.0281 41.8172 22.884 41.4692 22.6275 41.2127C22.3709 40.9561 22.023 40.812 21.6601 40.812H14.8201C14.4573 40.812 14.1094 40.9561 13.8528 41.2127C13.5963 41.4692 13.4521 41.8172 13.4521 42.18C13.4521 42.5428 13.5963 42.8908 13.8528 43.1473C14.1094 43.4039 14.4573 43.548 14.8201 43.548Z" fill="white"/>
<path d="M51.3001 31.692C45.5488 31.692 42.5278 28.0759 42.2029 27.6643C41.6557 26.9667 40.4849 27.0636 40.0027 27.7783L39.8648 27.6735C39.7371 27.8365 36.7184 31.692 30.7801 31.692C30.4173 31.692 30.0693 31.8361 29.8128 32.0926C29.5562 32.3492 29.4121 32.6971 29.4121 33.06C29.4121 40.7173 30.5521 51.3068 40.5248 54.883C40.6536 54.9229 40.7879 54.9421 40.9227 54.94C40.9512 54.94 40.9751 54.9286 41.0025 54.9274C41.0299 54.9263 41.0606 54.94 41.0926 54.94C41.2896 54.9402 41.4854 54.9074 41.6717 54.8431C51.5281 51.2999 52.6681 40.7128 52.6681 33.06C52.6681 32.6971 52.524 32.3492 52.2674 32.0926C52.0109 31.8361 51.6629 31.692 51.3001 31.692ZM41.0321 52.1378C33.6415 49.2822 32.2929 41.382 32.1606 34.3653C35.484 34.0869 38.6145 32.6891 41.0401 30.4003C43.4585 32.6999 46.593 34.0996 49.9196 34.3653C49.7885 41.3683 48.4387 49.2536 41.0321 52.1378Z" fill="white"/>
<path d="M17.1284 34.0621C17.3817 34.2969 17.7144 34.4272 18.0598 34.4269C18.0837 34.4269 18.1111 34.4269 18.135 34.4269C18.3189 34.4171 18.4989 34.3702 18.6642 34.2891C18.8296 34.208 18.9768 34.0943 19.0972 33.955L24.9773 27.115C25.214 26.8398 25.3318 26.4819 25.3046 26.12C25.2775 25.758 25.1076 25.4217 24.8325 25.1849C24.5574 24.9482 24.1995 24.8304 23.8375 24.8576C23.4756 24.8847 23.1392 25.0546 22.9025 25.3297L17.9503 31.0913L15.7501 29.0484C15.6203 28.9176 15.4653 28.8143 15.2946 28.7448C15.1239 28.6754 14.9408 28.6412 14.7565 28.6442C14.5722 28.6472 14.3904 28.6875 14.2221 28.7626C14.0537 28.8376 13.9023 28.9459 13.7768 29.081C13.6514 29.2161 13.5545 29.3751 13.492 29.5485C13.4296 29.7219 13.4028 29.9062 13.4134 30.0902C13.4239 30.2743 13.4715 30.4543 13.5534 30.6194C13.6352 30.7846 13.7496 30.9315 13.8897 31.0514L17.1284 34.0621Z" fill="white"/>
<path d="M27.1318 19.38C27.1318 19.7428 27.276 20.0907 27.5325 20.3473C27.7891 20.6038 28.137 20.748 28.4998 20.748H37.6198C37.9827 20.748 38.3306 20.6038 38.5872 20.3473C38.8437 20.0907 38.9878 19.7428 38.9878 19.38C38.9878 19.0171 38.8437 18.6692 38.5872 18.4126C38.3306 18.1561 37.9827 18.012 37.6198 18.012H28.4998C28.137 18.012 27.7891 18.1561 27.5325 18.4126C27.276 18.6692 27.1318 19.0171 27.1318 19.38Z" fill="white"/>
<path d="M14.8201 20.748H21.6601C22.023 20.748 22.3709 20.6038 22.6275 20.3473C22.884 20.0907 23.0281 19.7428 23.0281 19.38C23.0281 19.0171 22.884 18.6692 22.6275 18.4126C22.3709 18.1561 22.023 18.012 21.6601 18.012H14.8201C14.4573 18.012 14.1094 18.1561 13.8528 18.4126C13.5963 18.6692 13.4521 19.0171 13.4521 19.38C13.4521 19.7428 13.5963 20.0907 13.8528 20.3473C14.1094 20.6038 14.4573 20.748 14.8201 20.748Z" fill="white"/>
<path d="M17.0999 11.628H35.3399C35.7027 11.628 36.0507 11.4839 36.3073 11.2273C36.5638 10.9708 36.7079 10.6228 36.7079 10.26V3.42C36.7079 3.05719 36.5638 2.70923 36.3073 2.45268C36.0507 2.19613 35.7027 2.052 35.3399 2.052H17.0999C16.7371 2.052 16.3892 2.19613 16.1326 2.45268C15.8761 2.70923 15.7319 3.05719 15.7319 3.42V10.26C15.7319 10.6228 15.8761 10.9708 16.1326 11.2273C16.3892 11.4839 16.7371 11.628 17.0999 11.628ZM18.4679 4.788H33.9719V8.892H18.4679V4.788Z" fill="white"/>
</svg>
