<svg width="57" height="54" viewBox="0 0 57 54" fill="none" xmlns="http://www.w3.org/2000/svg">
<path d="M40.2203 49.1163C39.8827 49.1163 39.5589 48.9821 39.3202 48.7434C39.0815 48.5047 38.9474 48.1809 38.9474 47.8433C38.9474 47.5056 39.0815 47.1818 39.3202 46.9431C39.5589 46.7044 39.8827 46.5703 40.2203 46.5703H47.1921C47.6006 46.5703 47.9924 46.408 48.2812 46.1191C48.5701 45.8303 48.7323 45.4385 48.7323 45.03V11.5165C48.7323 11.108 48.5701 10.7163 48.2812 10.4274C47.9924 10.1386 47.6006 9.97627 47.1921 9.97627H9.7621C9.3536 9.97627 8.96182 10.1386 8.67297 10.4274C8.38411 10.7163 8.22183 11.108 8.22183 11.5165V45.03C8.22183 45.4385 8.38411 45.8303 8.67297 46.1191C8.96182 46.408 9.3536 46.5703 9.7621 46.5703H32.3917C32.7293 46.5703 33.0531 46.7044 33.2919 46.9431C33.5306 47.1818 33.6647 47.5056 33.6647 47.8433C33.6647 48.1809 33.5306 48.5047 33.2919 48.7434C33.0531 48.9821 32.7293 49.1163 32.3917 49.1163H9.764C8.68061 49.1151 7.64194 48.6842 6.87587 47.9181C6.1098 47.1521 5.67891 46.1134 5.67773 45.03V11.5165C5.67891 10.4332 6.1098 9.39448 6.87587 8.62841C7.64194 7.86234 8.68061 7.43145 9.764 7.43027H47.194C48.2773 7.43162 49.3158 7.86258 50.0817 8.62863C50.8476 9.39469 51.2784 10.4333 51.2796 11.5165V45.03C51.2784 46.1133 50.8476 47.1518 50.0817 47.9179C49.3158 48.6839 48.2773 49.1149 47.194 49.1163H40.2203Z" fill="white"/>
<path d="M17.5003 27.5893C16.9601 27.5888 16.4422 27.3739 16.0602 26.992C15.6782 26.61 15.4634 26.092 15.4629 25.5518V19.2533C15.4634 18.7131 15.6782 18.1952 16.0602 17.8132C16.4422 17.4312 16.9601 17.2164 17.5003 17.2159H23.7995C24.3402 17.2156 24.859 17.43 25.2416 17.8121C25.6243 18.1942 25.8396 18.7126 25.8401 19.2533V25.5525C25.8396 26.0927 25.6247 26.6106 25.2428 26.9926C24.8608 27.3746 24.3428 27.5894 23.8026 27.5899L17.5003 27.5893ZM18.6929 19.76C18.603 19.7599 18.5141 19.7776 18.431 19.8119C18.348 19.8462 18.2726 19.8966 18.209 19.9602C18.1455 20.0237 18.0951 20.0991 18.0608 20.1821C18.0264 20.2652 18.0088 20.3542 18.0089 20.444V24.358C18.0088 24.4478 18.0264 24.5368 18.0608 24.6199C18.0951 24.7029 18.1455 24.7783 18.209 24.8418C18.2726 24.9054 18.348 24.9558 18.431 24.9901C18.5141 25.0244 18.603 25.0421 18.6929 25.042H22.6101C22.6999 25.0421 22.789 25.0245 22.872 24.9901C22.9551 24.9558 23.0306 24.9054 23.0941 24.8419C23.1577 24.7784 23.2082 24.7029 23.2426 24.6199C23.277 24.5369 23.2947 24.4479 23.2947 24.358V20.444C23.2947 20.3541 23.277 20.2651 23.2426 20.1821C23.2082 20.0991 23.1577 20.0236 23.0941 19.9601C23.0306 19.8966 22.9551 19.8462 22.872 19.8119C22.789 19.7776 22.6999 19.7599 22.6101 19.76H18.6929Z" fill="white"/>
<path d="M25.3283 27.5893C24.7882 27.5886 24.2704 27.3737 23.8886 26.9917C23.5067 26.6098 23.292 26.0919 23.2915 25.5518V19.2533C23.292 18.7132 23.5067 18.1954 23.8886 17.8134C24.2704 17.4315 24.7882 17.2166 25.3283 17.2159H31.6274C32.1676 17.2164 32.6856 17.4312 33.0676 17.8132C33.4495 18.1952 33.6644 18.7131 33.6649 19.2533V25.5525C33.6644 26.0927 33.4495 26.6106 33.0676 26.9926C32.6856 27.3746 32.1676 27.5894 31.6274 27.5899L25.3283 27.5893ZM26.5209 19.76C26.431 19.7599 26.342 19.7776 26.259 19.8119C26.176 19.8462 26.1006 19.8966 26.037 19.9602C25.9735 20.0237 25.9231 20.0991 25.8888 20.1821C25.8544 20.2652 25.8368 20.3542 25.8369 20.444V24.358C25.8368 24.4478 25.8544 24.5368 25.8888 24.6199C25.9231 24.7029 25.9735 24.7783 26.037 24.8418C26.1006 24.9054 26.176 24.9558 26.259 24.9901C26.342 25.0244 26.431 25.0421 26.5209 25.042H30.4349C30.5247 25.0421 30.6138 25.0245 30.6968 24.9901C30.7799 24.9558 30.8554 24.9054 30.9189 24.8419C30.9825 24.7784 31.033 24.7029 31.0674 24.6199C31.1018 24.5369 31.1195 24.4479 31.1195 24.358V20.444C31.1195 20.3541 31.1018 20.2651 31.0674 20.1821C31.033 20.0991 30.9825 20.0236 30.9189 19.9601C30.8554 19.8966 30.7799 19.8462 30.6968 19.8119C30.6138 19.7775 30.5247 19.7599 30.4349 19.76H26.5209Z" fill="white"/>
<path d="M17.5003 35.4173C16.9601 35.4168 16.4422 35.2019 16.0602 34.82C15.6782 34.438 15.4634 33.92 15.4629 33.3798V27.0807C15.4634 26.5405 15.6782 26.0226 16.0602 25.6406C16.4422 25.2586 16.9601 25.0438 17.5003 25.0433H23.7995C24.3402 25.0429 24.859 25.2574 25.2416 25.6395C25.6243 26.0215 25.8396 26.5399 25.8401 27.0807V33.3798C25.8396 33.92 25.6247 34.438 25.2428 34.82C24.8608 35.2019 24.3428 35.4168 23.8026 35.4173H17.5003ZM18.6929 27.5893C18.603 27.5892 18.5141 27.6068 18.431 27.6412C18.348 27.6755 18.2726 27.7259 18.209 27.7894C18.1455 27.853 18.0951 27.9284 18.0608 28.0114C18.0264 28.0944 18.0088 28.1834 18.0089 28.2733V32.1873C18.0088 32.2771 18.0264 32.3661 18.0608 32.4491C18.0951 32.5321 18.1455 32.6076 18.209 32.6711C18.2726 32.7346 18.348 32.785 18.431 32.8194C18.5141 32.8537 18.603 32.8714 18.6929 32.8713H22.6101C22.7 32.8714 22.789 32.8539 22.8721 32.8196C22.9552 32.7852 23.0307 32.7349 23.0943 32.6713C23.1579 32.6078 23.2084 32.5323 23.2427 32.4493C23.2771 32.3662 23.2948 32.2772 23.2947 32.1873V28.2733C23.2947 28.1834 23.277 28.0944 23.2426 28.0114C23.2082 27.9283 23.1577 27.8529 23.0941 27.7894C23.0306 27.7259 22.9551 27.6755 22.872 27.6412C22.789 27.6068 22.6999 27.5892 22.6101 27.5893H18.6929Z" fill="white"/>
<path d="M33.1564 27.5893C32.6163 27.5886 32.0986 27.3737 31.7167 26.9917C31.3349 26.6098 31.1201 26.0919 31.1196 25.5518V19.2533C31.1201 18.7132 31.3349 18.1954 31.7167 17.8134C32.0986 17.4315 32.6163 17.2166 33.1564 17.2159H39.4568C39.9968 17.2167 40.5144 17.4317 40.8961 17.8137C41.2779 18.1956 41.4925 18.7133 41.493 19.2533V25.5525C41.4923 26.0923 41.2776 26.6099 40.8959 26.9917C40.5142 27.3735 39.9967 27.5884 39.4568 27.5893H33.1564ZM34.349 19.76C34.2591 19.7599 34.1702 19.7776 34.0871 19.8119C34.0041 19.8462 33.9287 19.8966 33.8652 19.9602C33.8016 20.0237 33.7512 20.0991 33.7169 20.1821C33.6826 20.2652 33.6649 20.3542 33.665 20.444V24.358C33.6649 24.4478 33.6826 24.5368 33.7169 24.6199C33.7512 24.7029 33.8016 24.7783 33.8652 24.8418C33.9287 24.9054 34.0041 24.9558 34.0871 24.9901C34.1702 25.0244 34.2591 25.0421 34.349 25.042H38.263C38.353 25.0424 38.4422 25.0251 38.5254 24.991C38.6087 24.9569 38.6844 24.9067 38.7483 24.8432C38.8121 24.7798 38.8628 24.7044 38.8974 24.6214C38.9321 24.5383 38.95 24.4493 38.9502 24.3593V20.4453C38.9503 20.3551 38.9327 20.2657 38.8982 20.1824C38.8637 20.099 38.813 20.0234 38.7492 19.9597C38.6853 19.896 38.6095 19.8455 38.526 19.8113C38.4426 19.777 38.3532 19.7596 38.263 19.76H34.349Z" fill="white"/>
<path d="M25.3283 35.4173C24.7882 35.4166 24.2704 35.2017 23.8886 34.8197C23.5067 34.4378 23.292 33.9199 23.2915 33.3798V27.0807C23.292 26.5406 23.5067 26.0228 23.8886 25.6408C24.2704 25.2588 24.7882 25.0439 25.3283 25.0433H31.6274C32.1676 25.0438 32.6856 25.2586 33.0676 25.6406C33.4495 26.0226 33.6644 26.5405 33.6649 27.0807V33.3798C33.6644 33.92 33.4495 34.438 33.0676 34.82C32.6856 35.2019 32.1676 35.4168 31.6274 35.4173H25.3283ZM26.5209 27.5893C26.431 27.5892 26.342 27.6068 26.259 27.6412C26.176 27.6755 26.1006 27.7259 26.037 27.7894C25.9735 27.853 25.9231 27.9284 25.8888 28.0114C25.8544 28.0944 25.8368 28.1834 25.8369 28.2733V32.1873C25.8368 32.2771 25.8544 32.3661 25.8888 32.4491C25.9231 32.5321 25.9735 32.6076 26.037 32.6711C26.1006 32.7346 26.176 32.785 26.259 32.8194C26.342 32.8537 26.431 32.8713 26.5209 32.8713H30.4349C30.5248 32.8714 30.6138 32.8539 30.6969 32.8195C30.78 32.7852 30.8555 32.7349 30.9191 32.6713C30.9827 32.6078 31.0332 32.5323 31.0675 32.4493C31.1019 32.3662 31.1196 32.2772 31.1195 32.1873V28.2733C31.1195 28.1834 31.1018 28.0944 31.0674 28.0114C31.033 27.9283 30.9825 27.8529 30.9189 27.7894C30.8554 27.7259 30.7799 27.6755 30.6968 27.6412C30.6138 27.6068 30.5247 27.5892 30.4349 27.5893H26.5209Z" fill="white"/>
<path d="M17.5003 43.2453C16.9601 43.2448 16.4422 43.0299 16.0602 42.648C15.6782 42.266 15.4634 41.748 15.4629 41.2078V34.9087C15.4631 34.3683 15.6777 33.85 16.0598 33.4678C16.4418 33.0855 16.9599 32.8705 17.5003 32.87H23.7995C24.0673 32.8698 24.3326 32.9224 24.5801 33.0248C24.8277 33.1272 25.0526 33.2773 25.2421 33.4666C25.4316 33.656 25.5819 33.8808 25.6845 34.1282C25.7871 34.3756 25.84 34.6408 25.8401 34.9087V41.2078C25.8396 41.748 25.6247 42.266 25.2428 42.648C24.8608 43.0299 24.3428 43.2448 23.8026 43.2453H17.5003ZM18.6929 35.4173C18.603 35.4172 18.5141 35.4348 18.431 35.4692C18.348 35.5035 18.2726 35.5539 18.209 35.6174C18.1455 35.681 18.0951 35.7564 18.0608 35.8394C18.0264 35.9224 18.0088 36.0114 18.0089 36.1013V40.0153C18.0088 40.1051 18.0264 40.1941 18.0608 40.2771C18.0951 40.3601 18.1455 40.4356 18.209 40.4991C18.2726 40.5626 18.348 40.613 18.431 40.6474C18.5141 40.6817 18.603 40.6993 18.6929 40.6993H22.6101C22.7 40.6994 22.789 40.6819 22.8721 40.6476C22.9552 40.6132 23.0307 40.5629 23.0943 40.4993C23.1579 40.4358 23.2084 40.3603 23.2427 40.2773C23.2771 40.1942 23.2948 40.1052 23.2947 40.0153V36.1C23.2944 35.9187 23.2221 35.745 23.0937 35.6169C22.9653 35.4889 22.7914 35.4171 22.6101 35.4173H18.6929Z" fill="white"/>
<path d="M33.1564 35.4173C32.6163 35.4166 32.0986 35.2017 31.7167 34.8197C31.3349 34.4378 31.1201 33.9199 31.1196 33.3798V27.0807C31.1201 26.5406 31.3349 26.0228 31.7167 25.6408C32.0986 25.2588 32.6163 25.0439 33.1564 25.0433H39.4568C39.997 25.0438 40.515 25.2586 40.897 25.6406C41.2789 26.0226 41.4938 26.5405 41.4943 27.0807V33.3798C41.4938 33.92 41.2789 34.438 40.897 34.82C40.515 35.2019 39.997 35.4168 39.4568 35.4173H33.1564ZM34.349 27.5893C34.2591 27.5892 34.1702 27.6068 34.0871 27.6412C34.0041 27.6755 33.9287 27.7259 33.8652 27.7894C33.8016 27.853 33.7512 27.9284 33.7169 28.0114C33.6826 28.0944 33.6649 28.1834 33.665 28.2733V32.1873C33.6649 32.2771 33.6826 32.3661 33.7169 32.4491C33.7512 32.5321 33.8016 32.6076 33.8652 32.6711C33.9287 32.7346 34.0041 32.785 34.0871 32.8194C34.1702 32.8537 34.2591 32.8713 34.349 32.8713H38.263C38.3531 32.8718 38.4424 32.8544 38.5258 32.8203C38.6092 32.7861 38.685 32.7358 38.7489 32.6722C38.8128 32.6087 38.8634 32.5331 38.898 32.4499C38.9325 32.3666 38.9502 32.2774 38.9502 32.1873V28.2733C38.9502 28.1834 38.9325 28.0944 38.898 28.0114C38.8636 27.9283 38.8132 27.8529 38.7496 27.7894C38.686 27.7259 38.6105 27.6755 38.5275 27.6412C38.4444 27.6068 38.3554 27.5892 38.2655 27.5893H34.349Z" fill="white"/>
<path d="M25.3283 43.2453C24.7882 43.2446 24.2704 43.0297 23.8886 42.6477C23.5067 42.2658 23.292 41.7479 23.2915 41.2078V34.9087C23.2917 34.3684 23.5063 33.8502 23.8881 33.468C24.27 33.0857 24.788 32.8707 25.3283 32.87H31.6274C32.1676 32.8705 32.6856 33.0853 33.0676 33.4673C33.4495 33.8493 33.6644 34.3672 33.6649 34.9074V41.2066C33.6644 41.7468 33.4495 42.2647 33.0676 42.6467C32.6856 43.0287 32.1676 43.2435 31.6274 43.244L25.3283 43.2453ZM26.5209 35.4173C26.3402 35.4179 26.1671 35.4901 26.0395 35.6181C25.9119 35.746 25.8402 35.9193 25.84 36.1V40.014C25.84 40.1038 25.8576 40.1928 25.8919 40.2759C25.9263 40.3589 25.9767 40.4343 26.0402 40.4978C26.1037 40.5614 26.1792 40.6118 26.2622 40.6461C26.3452 40.6804 26.4342 40.6981 26.524 40.698H30.438C30.5279 40.6982 30.617 40.6806 30.7001 40.6463C30.7832 40.612 30.8587 40.5616 30.9223 40.4981C30.9859 40.4345 31.0363 40.3591 31.0707 40.276C31.1051 40.1929 31.1228 40.1039 31.1227 40.014V36.1C31.1227 36.0101 31.105 35.9211 31.0705 35.8381C31.0361 35.7551 30.9857 35.6796 30.9221 35.6161C30.8585 35.5526 30.783 35.5022 30.7 35.4679C30.6169 35.4335 30.5279 35.4159 30.438 35.416L26.5209 35.4173Z" fill="white"/>
<path d="M20.6499 43.2453C20.3123 43.2453 19.9885 43.1111 19.7498 42.8724C19.5111 42.6337 19.377 42.3099 19.377 41.9723C19.377 41.6346 19.5111 41.3109 19.7498 41.0721C19.9885 40.8334 20.3123 40.6993 20.6499 40.6993H28.4779C28.6451 40.6993 28.8106 40.7322 28.9651 40.7962C29.1195 40.8601 29.2599 40.9539 29.3781 41.0721C29.4963 41.1903 29.59 41.3307 29.654 41.4851C29.718 41.6396 29.7509 41.8051 29.7509 41.9723C29.7509 42.1394 29.718 42.305 29.654 42.4594C29.59 42.6139 29.4963 42.7542 29.3781 42.8724C29.2599 42.9906 29.1195 43.0844 28.9651 43.1484C28.8106 43.2123 28.6451 43.2453 28.4779 43.2453H20.6499Z" fill="white"/>
<path d="M16.7359 39.33C16.3984 39.3295 16.0749 39.1952 15.8363 38.9566C15.5977 38.718 15.4634 38.3945 15.4629 38.057V22.4023C15.4629 22.0646 15.597 21.7409 15.8357 21.5021C16.0745 21.2634 16.3983 21.1293 16.7359 21.1293C17.0735 21.1293 17.3973 21.2634 17.6361 21.5021C17.8748 21.7409 18.0089 22.0646 18.0089 22.4023V38.0583C18.0081 38.3955 17.8736 38.7187 17.635 38.957C17.3965 39.1954 17.0731 39.3295 16.7359 39.33Z" fill="white"/>
<path d="M40.2206 31.5033C39.8831 31.5028 39.5596 31.3685 39.321 31.1299C39.0824 30.8913 38.9481 30.5678 38.9476 30.2303V22.4023C38.9438 22.2327 38.9739 22.0642 39.0362 21.9065C39.0984 21.7487 39.1916 21.6051 39.3101 21.4838C39.4287 21.3626 39.5703 21.2663 39.7266 21.2005C39.8828 21.1347 40.0507 21.1009 40.2203 21.1009C40.3898 21.1009 40.5577 21.1347 40.714 21.2005C40.8703 21.2663 41.0118 21.3626 41.1304 21.4838C41.2489 21.6051 41.3421 21.7487 41.4043 21.9065C41.4666 22.0642 41.4967 22.2327 41.4929 22.4023V30.2303C41.4924 30.5676 41.3582 30.8911 41.1198 31.1297C40.8813 31.3683 40.5579 31.5026 40.2206 31.5033Z" fill="white"/>
<path d="M20.65 19.76C20.3123 19.76 19.9885 19.6259 19.7498 19.3871C19.5111 19.1484 19.377 18.8246 19.377 18.487C19.377 18.1494 19.5111 17.8256 19.7498 17.5869C19.9885 17.3481 20.3123 17.214 20.65 17.214H36.306C36.6436 17.214 36.9674 17.3481 37.2061 17.5869C37.4448 17.8256 37.579 18.1494 37.579 18.487C37.579 18.8246 37.4448 19.1484 37.2061 19.3871C36.9674 19.6259 36.6436 19.76 36.306 19.76H20.65Z" fill="white"/>
<path d="M16.7359 13.8903C16.3985 13.8896 16.0751 13.7553 15.8365 13.5167C15.5979 13.2781 15.4636 12.9547 15.4629 12.6173V4.78927C15.4629 4.45165 15.597 4.12785 15.8357 3.88912C16.0745 3.65039 16.3983 3.51627 16.7359 3.51627C17.0735 3.51627 17.3973 3.65039 17.6361 3.88912C17.8748 4.12785 18.0089 4.45165 18.0089 4.78927V12.6173C18.0084 12.9547 17.8741 13.2782 17.6355 13.5169C17.3969 13.7555 17.0734 13.8898 16.7359 13.8903Z" fill="white"/>
<path d="M40.2206 13.8903C39.8831 13.8898 39.5596 13.7555 39.321 13.5169C39.0824 13.2782 38.9481 12.9547 38.9476 12.6173V4.78926C38.9438 4.61974 38.9739 4.45117 39.0362 4.29346C39.0984 4.13574 39.1916 3.99205 39.3101 3.87082C39.4287 3.74959 39.5703 3.65327 39.7266 3.58751C39.8828 3.52174 40.0507 3.48787 40.2203 3.48787C40.3898 3.48787 40.5577 3.52174 40.714 3.58751C40.8703 3.65327 41.0118 3.74959 41.1304 3.87082C41.2489 3.99205 41.3421 4.13574 41.4043 4.29346C41.4666 4.45117 41.4967 4.61974 41.4929 4.78926V12.6173C41.4924 12.9546 41.3582 13.278 41.1198 13.5166C40.8813 13.7552 40.5579 13.8896 40.2206 13.8903Z" fill="white"/>
<path d="M28.4778 13.8903C28.1404 13.8896 27.8171 13.7552 27.5786 13.5166C27.3401 13.278 27.2059 12.9546 27.2054 12.6173V4.78926C27.2016 4.61974 27.2317 4.45117 27.294 4.29346C27.3563 4.13574 27.4494 3.99205 27.5679 3.87082C27.6865 3.74959 27.8281 3.65327 27.9844 3.58751C28.1407 3.52174 28.3085 3.48787 28.4781 3.48787C28.6476 3.48787 28.8155 3.52174 28.9718 3.58751C29.1281 3.65327 29.2696 3.74959 29.3882 3.87082C29.5068 3.99205 29.5999 4.13574 29.6622 4.29346C29.7244 4.45117 29.7545 4.61974 29.7508 4.78926V12.6173C29.7503 12.9547 29.616 13.2782 29.3773 13.5169C29.1387 13.7555 28.8152 13.8898 28.4778 13.8903Z" fill="white"/>
</svg>
