<svg width="64" height="64" viewBox="0 0 64 64" fill="none" xmlns="http://www.w3.org/2000/svg">
<path d="M46.0798 38.144C44.0233 38.1499 42.0494 38.9539 40.5741 40.3865C39.0987 41.8191 38.237 43.7686 38.1707 45.824H25.8289C25.7655 43.854 24.9719 41.978 23.6022 40.5606C22.2326 39.1432 20.3849 38.2857 18.4183 38.1548C16.4516 38.0238 14.5066 38.6288 12.9611 39.8521C11.4157 41.0755 10.3804 42.8297 10.0563 44.7739C9.7323 46.7181 10.1427 48.7133 11.2079 50.3717C12.273 52.0301 13.9167 53.2332 15.8195 53.7472C17.7223 54.2612 19.7483 54.0493 21.5036 53.1527C23.2588 52.2561 24.618 50.7389 25.3169 48.896H38.6853C39.2006 50.2461 40.0752 51.4297 41.2146 52.3186C42.354 53.2076 43.7148 53.7681 45.1497 53.9395C46.5846 54.111 48.0391 53.8868 49.3559 53.2914C50.6726 52.6959 51.8015 51.7517 52.6204 50.561C53.4393 49.3702 53.9171 47.9783 54.002 46.5356C54.087 45.093 53.7759 43.6546 53.1024 42.376C52.4289 41.0974 51.4186 40.0273 50.1809 39.2814C48.9431 38.5354 47.525 38.1421 46.0798 38.144ZM17.9198 50.944C16.9578 50.944 16.0174 50.6587 15.2175 50.1243C14.4177 49.5898 13.7942 48.8301 13.4261 47.9414C13.0579 47.0526 12.9616 46.0746 13.1493 45.1311C13.337 44.1876 13.8002 43.3209 14.4805 42.6406C15.1607 41.9604 16.0274 41.4971 16.9709 41.3095C17.9144 41.1218 18.8924 41.2181 19.7812 41.5862C20.67 41.9544 21.4296 42.5778 21.9641 43.3777C22.4986 44.1776 22.7838 45.118 22.7838 46.08C22.7838 47.37 22.2714 48.6072 21.3592 49.5194C20.447 50.4315 19.2098 50.944 17.9198 50.944ZM46.0798 50.944C45.1178 50.944 44.1774 50.6587 43.3775 50.1243C42.5777 49.5898 41.9542 48.8301 41.5861 47.9414C41.2179 47.0526 41.1216 46.0746 41.3093 45.1311C41.497 44.1876 41.9602 43.3209 42.6405 42.6406C43.3207 41.9604 44.1874 41.4971 45.1309 41.3095C46.0744 41.1218 47.0524 41.2181 47.9412 41.5862C48.83 41.9544 49.5896 42.5778 50.1241 43.3777C50.6586 44.1776 50.9438 45.118 50.9438 46.08C50.9438 47.37 50.4314 48.6072 49.5192 49.5194C48.607 50.4315 47.3698 50.944 46.0798 50.944Z" fill="#0F3290"/>
<path d="M7.12724 9.98392C5.84862 9.98493 4.62265 10.4932 3.71841 11.3972C2.81417 12.3012 2.30556 13.5271 2.3042 14.8057V44.0729C2.3042 44.4802 2.46603 44.8709 2.75408 45.159C3.04214 45.447 3.43283 45.6089 3.8402 45.6089C4.24757 45.6089 4.63826 45.447 4.92631 45.159C5.21437 44.8709 5.3762 44.4802 5.3762 44.0729V14.8057C5.37721 14.3417 5.56207 13.897 5.89027 13.5691C6.21847 13.2411 6.66326 13.0566 7.12724 13.0559H33.0242V24.3199C33.0242 24.7273 33.186 25.118 33.4741 25.406C33.7621 25.6941 34.1528 25.8559 34.5602 25.8559H54.4002L58.6242 30.0799V44.0729C58.6242 44.4802 58.786 44.8709 59.0741 45.159C59.3621 45.447 59.7528 45.6089 60.1602 45.6089C60.5676 45.6089 60.9582 45.447 61.2463 45.159C61.5344 44.8709 61.6962 44.4802 61.6962 44.0729V29.4399C61.6963 29.2381 61.6567 29.0383 61.5797 28.8519C61.5026 28.6654 61.3895 28.4959 61.2469 28.3532L56.1269 23.2332C55.9842 23.0906 55.8147 22.9775 55.6282 22.9004C55.4418 22.8234 55.242 22.7838 55.0402 22.7839H52.4802C52.13 22.7851 51.7875 22.6807 51.4976 22.4843C51.2076 22.2879 50.9835 22.0087 50.8546 21.6831L47.3871 13.0137C47.031 12.1171 46.4132 11.3486 45.6141 10.8082C44.815 10.2678 43.8717 9.98058 42.9071 9.98392H7.12724ZM36.0962 13.0559H42.9109C43.2622 13.0534 43.6061 13.1571 43.8975 13.3533C44.1889 13.5494 44.4143 13.829 44.5442 14.1554L47.9874 22.7839H36.0962V13.0559Z" fill="#0F3290"/>
</svg>
