<svg width="64" height="64" viewBox="0 0 64 64" fill="none" xmlns="http://www.w3.org/2000/svg">
<path d="M31.9999 61.7766C31.7554 61.7776 31.5138 61.7243 31.2924 61.6204C31.071 61.5166 30.8755 61.3649 30.7199 61.1762C28.5734 58.6086 9.76123 35.7542 9.76123 24.1113C9.76123 11.8502 19.7375 1.87256 31.9999 1.87256C44.2623 1.87256 54.2387 11.8566 54.2387 24.1113C54.2387 28.9394 51.1539 35.9666 44.8089 45.5974C44.6883 45.7807 44.5328 45.9384 44.3512 46.0616C44.1696 46.1848 43.9656 46.271 43.7507 46.3154C43.5358 46.3597 43.3142 46.3613 43.0987 46.32C42.8832 46.2787 42.678 46.1954 42.4947 46.0748C42.3114 45.9542 42.1536 45.7987 42.0304 45.6171C41.9072 45.4355 41.821 45.2315 41.7766 45.0166C41.7323 44.8017 41.7307 44.5801 41.772 44.3646C41.8133 44.1491 41.8966 43.9439 42.0172 43.7606C46.0671 37.6166 50.8953 29.2108 50.8953 24.1113C50.8953 13.6959 42.4191 5.2172 31.9999 5.2172C21.5807 5.2172 13.1046 13.6959 13.1046 24.1113C13.1046 33.2262 28.2508 52.7564 31.287 56.5798C31.3712 56.686 31.4785 56.7717 31.6006 56.8304C31.7228 56.8892 31.8567 56.9194 31.9923 56.919C32.1278 56.9194 32.2617 56.8892 32.3839 56.8304C32.5061 56.7717 32.6133 56.686 32.6975 56.5798C33.7446 55.2562 35.1295 53.4719 36.6655 51.3983C36.8207 51.1872 37.0236 51.0157 37.2576 50.8978C37.4916 50.78 37.7501 50.719 38.0121 50.7199C38.3689 50.7189 38.7164 50.8344 39.0015 51.0489C39.1788 51.1787 39.3286 51.3424 39.4423 51.5304C39.556 51.7184 39.6313 51.9271 39.6639 52.1444C39.6966 52.3617 39.6858 52.5833 39.6323 52.7965C39.5788 53.0096 39.4836 53.21 39.3523 53.3862C35.9167 58.0262 33.3107 61.1417 33.2799 61.1711C33.1238 61.3595 32.9283 61.5113 32.7072 61.6159C32.486 61.7205 32.2446 61.7754 31.9999 61.7766Z" fill="#0F3290"/>
<path d="M31.9998 36.0678C29.6349 36.068 27.3231 35.367 25.3567 34.0533C23.3903 32.7397 21.8577 30.8724 20.9525 28.6877C20.0473 26.503 19.8104 24.0989 20.2716 21.7795C20.7328 19.46 21.8714 17.3295 23.5435 15.6572C25.2156 13.9849 27.3461 12.8461 29.6654 12.3846C31.9848 11.9232 34.3889 12.1599 36.5737 13.0648C38.7586 13.9697 40.626 15.5022 41.9398 17.4685C43.2537 19.4347 43.955 21.7464 43.955 24.1113C43.9519 27.2812 42.6914 30.3204 40.4501 32.562C38.2087 34.8035 35.1697 36.0644 31.9998 36.0678ZM31.9998 15.5007C30.2964 15.5007 28.6314 16.0058 27.2151 16.9522C25.7989 17.8985 24.6951 19.2436 24.0433 20.8172C23.3916 22.3909 23.2211 24.1225 23.5535 25.7931C23.8859 27.4637 24.7062 28.9982 25.9107 30.2025C27.1152 31.4068 28.6498 32.2269 30.3205 32.5591C31.9911 32.8912 33.7227 32.7205 35.2963 32.0685C36.8698 31.4165 38.2147 30.3125 39.1609 28.8961C40.107 27.4797 40.6119 25.8146 40.6116 24.1113C40.6096 21.828 39.7016 19.6389 38.0869 18.0245C36.4723 16.4101 34.283 15.5024 31.9998 15.5007Z" fill="#0F3290"/>
</svg>
