<svg width="64" height="64" viewBox="0 0 64 64" fill="none" xmlns="http://www.w3.org/2000/svg">
<path d="M53.2005 2.30396H10.8005C9.90503 2.30429 9.04637 2.66016 8.4132 3.29332C7.78003 3.92649 7.42417 4.78516 7.42383 5.6806V58.3206C7.42451 59.2158 7.78052 60.0741 8.41365 60.707C9.04678 61.3399 9.90525 61.6956 10.8005 61.696H37.1198C37.5272 61.696 37.9179 61.5341 38.2059 61.2461C38.494 60.958 38.6558 60.5673 38.6558 60.16C38.6558 59.7526 38.494 59.3619 38.2059 59.0738C37.9179 58.7858 37.5272 58.624 37.1198 58.624H10.8005C10.72 58.6236 10.6429 58.5916 10.5859 58.5348C10.5289 58.478 10.4965 58.4011 10.4958 58.3206V5.6806C10.4962 5.5999 10.5284 5.52261 10.5854 5.46555C10.6425 5.4085 10.7198 5.37629 10.8005 5.37596H53.2005C53.2809 5.37663 53.3579 5.40898 53.4147 5.466C53.4715 5.52302 53.5035 5.60012 53.5038 5.6806V58.3206C53.5032 58.4011 53.4708 58.478 53.4138 58.5348C53.3568 58.5916 53.2797 58.6236 53.1992 58.624H47.3598C46.9525 58.624 46.5618 58.7858 46.2737 59.0738C45.9857 59.3619 45.8238 59.7526 45.8238 60.16C45.8238 60.5673 45.9857 60.958 46.2737 61.2461C46.5618 61.5341 46.9525 61.696 47.3598 61.696H53.2005C54.0955 61.6953 54.9536 61.3394 55.5865 60.7066C56.2193 60.0737 56.5752 59.2156 56.5758 58.3206V5.6806C56.5755 4.78538 56.2198 3.92691 55.5869 3.29378C54.954 2.66064 54.0957 2.30463 53.2005 2.30396Z" fill="#0F3290"/>
<path d="M43.5198 48.384H40.9598C40.5525 48.384 40.1618 48.5459 39.8737 48.8339C39.5857 49.122 39.4238 49.5127 39.4238 49.92C39.4238 50.3274 39.5857 50.7181 39.8737 51.0061C40.1618 51.2942 40.5525 51.456 40.9598 51.456H43.5198C43.9272 51.456 44.3179 51.2942 44.6059 51.0061C44.894 50.7181 45.0558 50.3274 45.0558 49.92C45.0558 49.5127 44.894 49.122 44.6059 48.8339C44.3179 48.5459 43.9272 48.384 43.5198 48.384Z" fill="#0F3290"/>
<path d="M33.2801 48.384H30.7201C30.3127 48.384 29.922 48.5459 29.634 48.8339C29.3459 49.122 29.1841 49.5127 29.1841 49.92C29.1841 50.3274 29.3459 50.7181 29.634 51.0061C29.922 51.2942 30.3127 51.456 30.7201 51.456H33.2801C33.6875 51.456 34.0781 51.2942 34.3662 51.0061C34.6543 50.7181 34.8161 50.3274 34.8161 49.92C34.8161 49.5127 34.6543 49.122 34.3662 48.8339C34.0781 48.5459 33.6875 48.384 33.2801 48.384Z" fill="#0F3290"/>
<path d="M23.0398 48.384H20.4798C20.0725 48.384 19.6818 48.5459 19.3937 48.8339C19.1057 49.122 18.9438 49.5127 18.9438 49.92C18.9438 50.3274 19.1057 50.7181 19.3937 51.0061C19.6818 51.2942 20.0725 51.456 20.4798 51.456H23.0398C23.4472 51.456 23.8379 51.2942 24.126 51.0061C24.414 50.7181 24.5758 50.3274 24.5758 49.92C24.5758 49.5127 24.414 49.122 24.126 48.8339C23.8379 48.5459 23.4472 48.384 23.0398 48.384Z" fill="#0F3290"/>
<path d="M43.5198 40.7041H40.9598C40.5525 40.7041 40.1618 40.8659 39.8737 41.154C39.5857 41.442 39.4238 41.8327 39.4238 42.2401C39.4238 42.6475 39.5857 43.0382 39.8737 43.3262C40.1618 43.6143 40.5525 43.7761 40.9598 43.7761H43.5198C43.9272 43.7761 44.3179 43.6143 44.6059 43.3262C44.894 43.0382 45.0558 42.6475 45.0558 42.2401C45.0558 41.8327 44.894 41.442 44.6059 41.154C44.3179 40.8659 43.9272 40.7041 43.5198 40.7041Z" fill="#0F3290"/>
<path d="M33.2801 40.7041H30.7201C30.3127 40.7041 29.922 40.8659 29.634 41.154C29.3459 41.442 29.1841 41.8327 29.1841 42.2401C29.1841 42.6475 29.3459 43.0382 29.634 43.3262C29.922 43.6143 30.3127 43.7761 30.7201 43.7761H33.2801C33.6875 43.7761 34.0781 43.6143 34.3662 43.3262C34.6543 43.0382 34.8161 42.6475 34.8161 42.2401C34.8161 41.8327 34.6543 41.442 34.3662 41.154C34.0781 40.8659 33.6875 40.7041 33.2801 40.7041Z" fill="#0F3290"/>
<path d="M23.0398 40.7041H20.4798C20.0725 40.7041 19.6818 40.8659 19.3937 41.154C19.1057 41.442 18.9438 41.8327 18.9438 42.2401C18.9438 42.6475 19.1057 43.0382 19.3937 43.3262C19.6818 43.6143 20.0725 43.7761 20.4798 43.7761H23.0398C23.4472 43.7761 23.8379 43.6143 24.126 43.3262C24.414 43.0382 24.5758 42.6475 24.5758 42.2401C24.5758 41.8327 24.414 41.442 24.126 41.154C23.8379 40.8659 23.4472 40.7041 23.0398 40.7041Z" fill="#0F3290"/>
<path d="M43.5198 33.0239H40.9598C40.5525 33.0239 40.1618 33.1858 39.8737 33.4738C39.5857 33.7619 39.4238 34.1526 39.4238 34.5599C39.4238 34.9673 39.5857 35.358 39.8737 35.646C40.1618 35.9341 40.5525 36.0959 40.9598 36.0959H43.5198C43.9272 36.0959 44.3179 35.9341 44.6059 35.646C44.894 35.358 45.0558 34.9673 45.0558 34.5599C45.0558 34.1526 44.894 33.7619 44.6059 33.4738C44.3179 33.1858 43.9272 33.0239 43.5198 33.0239Z" fill="#0F3290"/>
<path d="M33.2801 33.0239H30.7201C30.3127 33.0239 29.922 33.1858 29.634 33.4738C29.3459 33.7619 29.1841 34.1526 29.1841 34.5599C29.1841 34.9673 29.3459 35.358 29.634 35.646C29.922 35.9341 30.3127 36.0959 30.7201 36.0959H33.2801C33.6875 36.0959 34.0781 35.9341 34.3662 35.646C34.6543 35.358 34.8161 34.9673 34.8161 34.5599C34.8161 34.1526 34.6543 33.7619 34.3662 33.4738C34.0781 33.1858 33.6875 33.0239 33.2801 33.0239Z" fill="#0F3290"/>
<path d="M23.0398 33.0239H20.4798C20.0725 33.0239 19.6818 33.1858 19.3937 33.4738C19.1057 33.7619 18.9438 34.1526 18.9438 34.5599C18.9438 34.9673 19.1057 35.358 19.3937 35.646C19.6818 35.9341 20.0725 36.0959 20.4798 36.0959H23.0398C23.4472 36.0959 23.8379 35.9341 24.126 35.646C24.414 35.358 24.5758 34.9673 24.5758 34.5599C24.5758 34.1526 24.414 33.7619 24.126 33.4738C23.8379 33.1858 23.4472 33.0239 23.0398 33.0239Z" fill="#0F3290"/>
<path d="M48.896 22.9337V15.4662C48.8953 14.6911 48.5871 13.9481 48.0389 13.4001C47.4907 12.8522 46.7475 12.5443 45.9725 12.5439H18.0275C17.2525 12.5443 16.5093 12.8522 15.9611 13.4001C15.413 13.9481 15.1047 14.6911 15.104 15.4662V22.9337C15.1047 23.7087 15.413 24.4518 15.9611 24.9997C16.5093 25.5477 17.2525 25.8556 18.0275 25.8559H45.9725C46.7475 25.8556 47.4907 25.5477 48.0389 24.9997C48.5871 24.4518 48.8953 23.7087 48.896 22.9337ZM45.824 22.9337H18.176V15.6159H45.824V22.9337Z" fill="#0F3290"/>
</svg>
