<svg width="64" height="64" viewBox="0 0 64 64" fill="none" xmlns="http://www.w3.org/2000/svg">
<path d="M23.0399 45.824C15.8399 45.824 9.98389 51.6173 9.98389 58.7379V60.16C9.98389 60.5673 10.1457 60.958 10.4338 61.2461C10.7218 61.5341 11.1125 61.696 11.5199 61.696H26.8799C27.2873 61.696 27.6779 61.5341 27.966 61.2461C28.2541 60.958 28.4159 60.5673 28.4159 60.16C28.4159 59.7526 28.2541 59.3619 27.966 59.0739C27.6779 58.7858 27.2873 58.624 26.8799 58.624H13.0559C13.116 53.248 17.5717 48.896 23.0399 48.896C28.5439 48.896 33.0239 53.3107 33.0239 58.7379V60.16C33.0239 60.5673 33.1857 60.958 33.4738 61.2461C33.7618 61.5341 34.1525 61.696 34.5599 61.696C34.9673 61.696 35.358 61.5341 35.646 61.2461C35.9341 60.958 36.0959 60.5673 36.0959 60.16V58.7379C36.0959 51.6173 30.2399 45.824 23.0399 45.824Z" fill="#0F3290"/>
<path d="M16.2676 31.9999C16.2676 37.1673 19.2423 41.2159 23.0401 41.2159C26.8378 41.2159 29.8125 37.1673 29.8125 31.9999C29.8125 26.8326 26.8378 22.7839 23.0401 22.7839C19.2423 22.7839 16.2676 26.8326 16.2676 31.9999ZM26.7431 31.9999C26.7431 35.3279 25.0471 38.1439 23.0401 38.1439C21.033 38.1439 19.337 35.3279 19.337 31.9999C19.337 28.6719 21.033 25.8559 23.0401 25.8559C25.0471 25.8559 26.7431 28.6719 26.7431 31.9999Z" fill="#0F3290"/>
<path d="M60.1602 2.30396H3.8402C3.43283 2.30396 3.04214 2.46578 2.75408 2.75384C2.46603 3.04189 2.3042 3.43258 2.3042 3.83995V34.56C2.3042 34.9673 2.46603 35.358 2.75408 35.6461C3.04214 35.9341 3.43283 36.096 3.8402 36.096H10.2402C10.6476 36.096 11.0383 35.9341 11.3263 35.6461C11.6144 35.358 11.7762 34.9673 11.7762 34.56C11.7762 34.1526 11.6144 33.7619 11.3263 33.4738C11.0383 33.1858 10.6476 33.024 10.2402 33.024H5.3762V5.37595H58.6242V33.024H52.4802C52.0728 33.024 51.6821 33.1858 51.3941 33.4738C51.106 33.7619 50.9442 34.1526 50.9442 34.56V43.648L40.7644 33.4694C40.4761 33.1834 40.0863 33.0233 39.6802 33.024H35.8402C35.4328 33.024 35.0421 33.1858 34.7541 33.4738C34.466 33.7619 34.3042 34.1526 34.3042 34.56C34.3042 34.9673 34.466 35.358 34.7541 35.6461C35.0421 35.9341 35.4328 36.096 35.8402 36.096H39.0402L51.3896 48.4467C51.6042 48.6631 51.8784 48.8107 52.1771 48.8708C52.4759 48.931 52.7858 48.9009 53.0674 48.7843C53.349 48.6678 53.5896 48.4702 53.7586 48.2165C53.9275 47.9629 54.0172 47.6647 54.0162 47.36V36.096H60.1602C60.5676 36.096 60.9582 35.9341 61.2463 35.6461C61.5344 35.358 61.6962 34.9673 61.6962 34.56V3.83995C61.6962 3.43258 61.5344 3.04189 61.2463 2.75384C60.9582 2.46578 60.5676 2.30396 60.1602 2.30396Z" fill="#0F3290"/>
<path d="M49.9199 20.2241H34.5599C34.1526 20.2241 33.7619 20.3859 33.4738 20.674C33.1858 20.9621 33.0239 21.3527 33.0239 21.7601C33.0239 22.1675 33.1858 22.5582 33.4738 22.8462C33.7619 23.1343 34.1526 23.2961 34.5599 23.2961H49.9199C50.3273 23.2961 50.718 23.1343 51.006 22.8462C51.2941 22.5582 51.4559 22.1675 51.4559 21.7601C51.4559 21.3527 51.2941 20.9621 51.006 20.674C50.718 20.3859 50.3273 20.2241 49.9199 20.2241Z" fill="#0F3290"/>
<path d="M49.9199 12.5439H14.0799C13.6726 12.5439 13.2819 12.7058 12.9938 12.9938C12.7058 13.2819 12.5439 13.6726 12.5439 14.0799C12.5439 14.4873 12.7058 14.878 12.9938 15.1661C13.2819 15.4541 13.6726 15.6159 14.0799 15.6159H49.9199C50.3273 15.6159 50.718 15.4541 51.0061 15.1661C51.2941 14.878 51.4559 14.4873 51.4559 14.0799C51.4559 13.6726 51.2941 13.2819 51.0061 12.9938C50.718 12.7058 50.3273 12.5439 49.9199 12.5439Z" fill="#0F3290"/>
</svg>
