<svg width="57" height="54" viewBox="0 0 57 54" fill="none" xmlns="http://www.w3.org/2000/svg">
<path d="M43.7377 42.2933H39.7051C34.5766 40.9988 34.4728 35.4768 34.4707 35.241C34.4702 34.9113 34.3366 34.5954 34.0995 34.3626C33.8624 34.1299 33.5411 33.9995 33.2063 34C32.8716 34.0005 32.5507 34.132 32.3144 34.3655C32.0781 34.599 31.9456 34.9154 31.9462 35.2451C31.9462 37.0496 32.6668 40.0726 34.853 42.2933H23.1443C25.3305 40.0726 26.0504 37.0496 26.0504 35.2451C26.0506 34.9161 25.9182 34.6006 25.6823 34.3676C25.4464 34.1347 25.1263 34.0035 24.7923 34.0027C24.1942 34.0295 23.53 34.5512 23.5258 35.241C23.5258 35.4768 23.42 41.0002 18.2914 42.2933H14.2623C13.9274 42.2935 13.6064 42.4246 13.3697 42.6578C13.133 42.891 13 43.2073 13 43.537V49.7563C13 50.086 13.133 50.4023 13.3697 50.6355C13.6064 50.8687 13.9274 50.9998 14.2623 51H28.9983C29.3332 51 29.6545 50.869 29.8913 50.6357C30.1282 50.4025 30.2612 50.0861 30.2612 49.7563C30.2612 49.4264 30.1282 49.1101 29.8913 48.8768C29.6545 48.6436 29.3332 48.5126 28.9983 48.5126H15.5246V44.7814H42.4692V48.5126H37.4193C37.0843 48.5126 36.7631 48.6436 36.5262 48.8768C36.2894 49.1101 36.1563 49.4264 36.1563 49.7563C36.1563 50.0861 36.2894 50.4025 36.5262 50.6357C36.7631 50.869 37.0843 51 37.4193 51H43.7377C44.0726 50.9998 44.3936 50.8687 44.6303 50.6355C44.867 50.4023 45 50.086 45 49.7563V43.537C45 43.2073 44.867 42.891 44.6303 42.6578C44.3936 42.4246 44.0726 42.2935 43.7377 42.2933Z" fill="white"/>
<path d="M28.9998 30C32.0855 30 34.7341 28.8636 36.8764 26.6239C43.5996 19.5897 43.0036 3.88551 42.9749 3.22123C42.9615 2.8929 42.8219 2.58245 42.5853 2.35484C42.3486 2.12724 42.0333 2.00009 41.7052 2H16.2952C15.9675 1.99989 15.6525 2.12659 15.4159 2.35364C15.1793 2.58069 15.0394 2.89053 15.0255 3.21843C14.9961 3.88271 14.3987 19.5869 21.1233 26.6211C23.2656 28.8657 25.9149 30 28.9998 30ZM40.4537 4.54839C40.4537 8.28785 40.0174 19.6612 35.0381 24.8653C33.3713 26.6071 31.3964 27.4544 28.9998 27.4544C26.6033 27.4544 24.6284 26.6071 22.9616 24.8674C17.9823 19.6634 17.5481 8.28995 17.546 4.55049L40.4537 4.54839Z" fill="white"/>
<path d="M52.6523 4.39333C52.535 4.26892 52.3945 4.16996 52.2389 4.10237C52.0834 4.03479 51.9161 3.99997 51.7471 4H47.5495C47.2209 4.00788 46.9082 4.14683 46.6785 4.38713C46.4488 4.62743 46.3202 4.95002 46.3202 5.28594C46.3202 5.62186 46.4488 5.94445 46.6785 6.18475C46.9082 6.42505 47.2209 6.564 47.5495 6.57188H50.3932C50.0166 10.6746 48.2743 22.9734 40.8612 25.4942C40.7044 25.5475 40.5594 25.6318 40.4345 25.7424C40.3096 25.8529 40.2072 25.9875 40.1332 26.1385C40.0592 26.2894 40.0151 26.4538 40.0032 26.6222C39.9914 26.7906 40.0121 26.9598 40.0643 27.12C40.1164 27.2802 40.199 27.4284 40.3071 27.556C40.4153 27.6836 40.547 27.7882 40.6948 27.8639C40.8425 27.9395 41.0034 27.9846 41.1682 27.9967C41.3331 28.0088 41.4986 27.9876 41.6554 27.9343C52.1917 24.3454 52.972 6.10626 52.9991 5.33307C53.0056 5.16071 52.9782 4.98876 52.9187 4.82736C52.8591 4.66596 52.7685 4.51838 52.6523 4.39333Z" fill="white"/>
<path d="M15.7404 28C16.0394 28.0004 16.3288 27.892 16.5567 27.6941C16.7845 27.4962 16.936 27.2218 16.9838 26.9201C17.0316 26.6184 16.9727 26.3091 16.8177 26.0478C16.6626 25.7865 16.4215 25.5901 16.1377 25.494C8.72617 22.9697 6.9851 10.6745 6.61068 6.57186H9.45353C9.78209 6.56398 10.0946 6.42503 10.3242 6.18473C10.5539 5.94443 10.6825 5.62185 10.6825 5.28593C10.6825 4.95001 10.5539 4.62743 10.3242 4.38713C10.0946 4.14683 9.78209 4.00788 9.45353 4H5.2579C5.08886 4.00017 4.92158 4.03514 4.76604 4.1028C4.6105 4.17047 4.46988 4.26945 4.35257 4.39385C4.23525 4.51826 4.14365 4.66553 4.08322 4.82689C4.02278 4.98824 3.99476 5.16039 4.00081 5.33306C4.02993 6.10625 4.80929 24.3453 15.3431 27.9341C15.4712 27.9777 15.6053 27.9999 15.7404 28Z" fill="white"/>
</svg>
