<svg width="64" height="64" viewBox="0 0 64 64" fill="none" xmlns="http://www.w3.org/2000/svg">
<path d="M55.6802 2.30396H37.1202C36.7128 2.30396 36.3221 2.46578 36.0341 2.75384C35.746 3.0419 35.5842 3.43258 35.5842 3.83996C35.5842 4.24733 35.746 4.63802 36.0341 4.92607C36.3221 5.21413 36.7128 5.37596 37.1202 5.37596H55.6802C56.461 5.37596 57.2098 5.68613 57.7619 6.23823C58.314 6.79034 58.6242 7.53916 58.6242 8.31996V45.44C58.6242 46.2208 58.314 46.9696 57.7619 47.5217C57.2098 48.0738 56.461 48.384 55.6802 48.384H8.3202C7.5394 48.384 6.79058 48.0738 6.23848 47.5217C5.68637 46.9696 5.3762 46.2208 5.3762 45.44V8.31996C5.3762 7.53916 5.68637 6.79034 6.23848 6.23823C6.79058 5.68613 7.5394 5.37596 8.3202 5.37596H11.5202C11.9276 5.37596 12.3183 5.21413 12.6063 4.92607C12.8944 4.63802 13.0562 4.24733 13.0562 3.83996C13.0562 3.43258 12.8944 3.0419 12.6063 2.75384C12.3183 2.46578 11.9276 2.30396 11.5202 2.30396H8.3202C6.72466 2.30396 5.19446 2.93778 4.06624 4.066C2.93803 5.19422 2.3042 6.72441 2.3042 8.31996V45.44C2.3042 47.0355 2.93803 48.5657 4.06624 49.6939C5.19446 50.8221 6.72466 51.456 8.3202 51.456H22.7842V58.624H16.6402C16.2328 58.624 15.8421 58.7858 15.5541 59.0738C15.266 59.3619 15.1042 59.7526 15.1042 60.16C15.1042 60.5673 15.266 60.958 15.5541 61.2461C15.8421 61.5341 16.2328 61.696 16.6402 61.696H47.3602C47.7676 61.696 48.1583 61.5341 48.4463 61.2461C48.7344 60.958 48.8962 60.5673 48.8962 60.16C48.8962 59.7526 48.7344 59.3619 48.4463 59.0738C48.1583 58.7858 47.7676 58.624 47.3602 58.624H41.2162V51.456H55.6802C57.2757 51.456 58.8059 50.8221 59.9342 49.6939C61.0624 48.5657 61.6962 47.0355 61.6962 45.44V8.31996C61.6962 6.72441 61.0624 5.19422 59.9342 4.066C58.8059 2.93778 57.2757 2.30396 55.6802 2.30396ZM38.1442 58.624H25.8562V51.456H38.1442V58.624Z" fill="#0F3290"/>
<path d="M9.98389 39.68C9.98389 40.0874 10.1457 40.4781 10.4338 40.7661C10.7218 41.0542 11.1125 41.216 11.5199 41.216H26.8799C27.2873 41.216 27.6779 41.0542 27.966 40.7661C28.2541 40.4781 28.4159 40.0874 28.4159 39.68C28.4159 39.2726 28.2541 38.8819 27.966 38.5939C27.6779 38.3058 27.2873 38.144 26.8799 38.144H13.0559C13.116 32.768 17.5717 28.416 23.0399 28.416C28.5439 28.416 33.0239 32.8307 33.0239 38.2592V39.68C33.0239 40.0874 33.1857 40.4781 33.4738 40.7661C33.7618 41.0542 34.1525 41.216 34.5599 41.216C34.9673 41.216 35.358 41.0542 35.646 40.7661C35.9341 40.4781 36.0959 40.0874 36.0959 39.68V38.2579C36.0959 31.1373 30.2399 25.344 23.0399 25.344C15.8399 25.344 9.98389 31.1373 9.98389 38.2579V39.68Z" fill="#0F3290"/>
<path d="M42.5103 25.856C42.7328 25.8561 42.9526 25.8078 43.1546 25.7146C43.3566 25.6213 43.536 25.4853 43.6802 25.3159L51.0901 16.5965C51.2228 16.4431 51.3238 16.265 51.3872 16.0724C51.4507 15.8799 51.4754 15.6766 51.4599 15.4744C51.4445 15.2722 51.3891 15.0751 51.2971 14.8944C51.205 14.7138 51.0781 14.5531 50.9236 14.4217C50.7692 14.2903 50.5903 14.1908 50.3972 14.1289C50.2041 14.0671 50.0006 14.044 49.7986 14.0612C49.5965 14.0783 49.3999 14.1353 49.2199 14.2288C49.04 14.3223 48.8804 14.4506 48.7503 14.6061L42.5103 21.9482L39.3308 18.2067C39.0617 17.916 38.6907 17.7405 38.2952 17.7168C37.8998 17.6931 37.5105 17.8232 37.2087 18.0797C36.9068 18.3363 36.7158 18.6996 36.6755 19.0937C36.6351 19.4878 36.7486 19.8822 36.9922 20.1946L41.3442 25.3146C41.4879 25.4837 41.6666 25.6197 41.8679 25.7132C42.0692 25.8067 42.2883 25.8554 42.5103 25.856Z" fill="#0F3290"/>
<path d="M23.0401 20.736C26.8378 20.736 29.8125 16.6886 29.8125 11.52C29.8125 6.35132 26.8378 2.30396 23.0401 2.30396C19.2423 2.30396 16.2676 6.35132 16.2676 11.52C16.2676 16.6886 19.2423 20.736 23.0401 20.736ZM23.0401 5.37596C25.0471 5.37596 26.7431 8.19196 26.7431 11.52C26.7431 14.848 25.0471 17.664 23.0401 17.664C21.033 17.664 19.337 14.848 19.337 11.52C19.337 8.19196 21.033 5.37596 23.0401 5.37596Z" fill="#0F3290"/>
</svg>
