<svg width="56" height="56" viewBox="0 0 56 56" fill="none" xmlns="http://www.w3.org/2000/svg">
<path d="M23.8757 39.7387C23.5949 39.7389 23.321 39.6519 23.0916 39.4898C22.8623 39.3278 22.6889 39.0986 22.5952 38.8338C22.5016 38.569 22.4924 38.2818 22.5689 38.0116C22.6454 37.7414 22.8038 37.5015 23.0223 37.3251C23.9183 36.605 24.8389 35.8938 25.7764 35.1736C28.1967 33.3099 30.7044 31.3858 33.2009 28.8826C43.9327 18.153 48.8338 10.1394 49.5103 7.37856C49.5369 7.27113 49.5386 7.15906 49.5153 7.05087C49.4921 6.94268 49.4445 6.84121 49.3761 6.75418C49.3078 6.66715 49.2205 6.59685 49.1209 6.54862C49.0213 6.50039 48.912 6.4755 48.8013 6.47584C48.7429 6.4759 48.6846 6.48267 48.6277 6.496C45.8602 7.168 37.8477 12.0702 27.1159 22.8032C24.6127 25.3042 22.6885 27.8074 20.8249 30.2266C20.1047 31.1651 19.3935 32.088 18.6733 32.9818C18.5616 33.1203 18.4236 33.2355 18.2673 33.3207C18.111 33.4059 17.9394 33.4595 17.7624 33.4785C17.5854 33.4974 17.4064 33.4813 17.2356 33.431C17.0649 33.3808 16.9056 33.2974 16.7671 33.1856C16.6285 33.0738 16.5134 32.9358 16.4281 32.7795C16.3429 32.6233 16.2893 32.4517 16.2704 32.2747C16.2515 32.0977 16.2676 31.9187 16.3178 31.7479C16.3681 31.5771 16.4515 31.4179 16.5633 31.2794C17.2733 30.399 17.9677 29.4952 18.6767 28.5723C20.5908 26.0859 22.5709 23.5144 25.1973 20.8858C33.0889 12.9819 44.1892 3.74976 49.5013 3.74976C50.3649 3.74976 51.0245 3.98832 51.5173 4.47888C54.9367 7.9016 45.7426 20.1667 35.1138 30.7989C32.4852 33.423 29.9137 35.4032 27.425 37.3173C26.5044 38.0262 25.6005 38.7206 24.7202 39.4307C24.4824 39.6273 24.1842 39.736 23.8757 39.7387Z" fill="white"/>
<path d="M12.7515 40.0176C12.5786 40.0163 12.4074 39.9833 12.2464 39.9202L4.60463 36.8615C4.42239 36.7882 4.2582 36.6762 4.12337 36.5334C3.98853 36.3905 3.88624 36.2202 3.82355 36.034C3.76086 35.8478 3.73924 35.6503 3.7602 35.455C3.78116 35.2597 3.84419 35.0712 3.94495 34.9026L6.02927 31.4306C6.15078 31.2316 6.32096 31.0668 6.52377 30.9518C6.72658 30.8368 6.95533 30.7753 7.18847 30.7732L16.872 30.7429C17.2315 30.7435 17.5761 30.8862 17.8308 31.1398C18.0855 31.3935 18.2296 31.7375 18.2317 32.097C18.2311 32.4559 18.0887 32.8 17.8354 33.0542C17.5822 33.3085 17.2387 33.4524 16.8798 33.4544L8.37343 33.4813C8.24758 33.4814 8.12387 33.514 8.01435 33.576C7.90484 33.638 7.81324 33.7273 7.74847 33.8352L7.52447 34.2037C7.47046 34.2945 7.43675 34.3958 7.42565 34.5009C7.41455 34.6059 7.42632 34.7121 7.46016 34.8121C7.49401 34.9122 7.54912 35.0037 7.6217 35.0804C7.69428 35.1571 7.78262 35.2172 7.88063 35.2565L13.2499 37.4036C13.543 37.5203 13.7861 37.7356 13.9376 38.0123C14.0891 38.289 14.1394 38.6098 14.0799 38.9196C14.0203 39.2293 13.8547 39.5087 13.6114 39.7095C13.3681 39.9103 13.0625 40.0201 12.747 40.0199L12.7515 40.0176Z" fill="white"/>
<path d="M20.3986 52.2502C20.3211 52.2492 20.2439 52.2409 20.1679 52.2255C19.9397 52.1859 19.7254 52.0888 19.5452 51.9434C19.3649 51.798 19.2246 51.6091 19.1375 51.3945L16.081 43.7505C15.9482 43.4166 15.9531 43.0436 16.0949 42.7134C16.2366 42.3831 16.5035 42.1225 16.837 41.9888C16.9953 41.9243 17.1646 41.8912 17.3354 41.8913C17.6067 41.8926 17.8715 41.9744 18.0962 42.1263C18.3209 42.2783 18.4954 42.4935 18.5977 42.7448L20.4065 47.2639C20.4528 47.3794 20.5278 47.4812 20.6244 47.5596C20.7211 47.638 20.8361 47.6904 20.9586 47.7119C21 47.7192 21.042 47.7226 21.0841 47.722C21.1868 47.7225 21.2884 47.7012 21.3822 47.6595C21.476 47.6178 21.5599 47.5566 21.6284 47.4801L22.3351 46.6883C22.4544 46.5549 22.5202 46.3822 22.5199 46.2033L22.5468 39.1171C22.5483 38.7574 22.6926 38.413 22.948 38.1597C23.2034 37.9064 23.549 37.7649 23.9087 37.7664C24.2684 37.7679 24.6128 37.9122 24.8661 38.1676C25.1194 38.423 25.2609 38.7686 25.2594 39.1283L25.2303 47.0075C25.2275 47.3382 25.1045 47.6567 24.8842 47.9035L21.4122 51.791C21.2851 51.9346 21.1291 52.0497 20.9545 52.1288C20.7798 52.208 20.5904 52.2493 20.3986 52.2502Z" fill="white"/>
<path d="M23.9009 24.192C23.6404 24.1906 23.3861 24.1127 23.1695 23.968L8.35308 14.4065C8.16398 14.2853 8.00811 14.1188 7.89957 13.9221C7.79104 13.7254 7.73327 13.5048 7.73149 13.2802C7.72971 13.0556 7.78398 12.834 7.88938 12.6357C7.99479 12.4373 8.148 12.2684 8.33516 12.1441L12.9272 9.08317C13.1501 8.93524 13.4122 8.85724 13.6798 8.85917C13.7708 8.85973 13.8615 8.86873 13.9508 8.88605L33.851 12.8609C34.1826 12.925 34.4784 13.1105 34.6805 13.3811C34.8825 13.6518 34.9764 13.9881 34.9436 14.3242C34.9108 14.6604 34.7538 14.9722 34.5032 15.1987C34.2527 15.4252 33.9266 15.5501 33.5889 15.5489C33.4994 15.5489 33.4101 15.5399 33.3223 15.522L14.2588 11.714C14.2121 11.7037 14.1644 11.6988 14.1166 11.6995C13.9722 11.6985 13.831 11.741 13.7112 11.8216L12.487 12.638C12.3866 12.7054 12.3044 12.7966 12.248 12.9035C12.1915 13.0104 12.1625 13.1297 12.1635 13.2506C12.1644 13.3715 12.1955 13.4903 12.2537 13.5962C12.3119 13.7022 12.3955 13.7921 12.4971 13.8577L24.6401 21.6977C24.8849 21.8574 25.0715 22.0919 25.1724 22.3662C25.2732 22.6405 25.2828 22.94 25.1998 23.2202C25.1167 23.5005 24.9454 23.7464 24.7114 23.9214C24.4774 24.0965 24.1932 24.1914 23.9009 24.192Z" fill="white"/>
<path d="M42.7009 48.272C42.476 48.2677 42.2557 48.2073 42.0601 48.0962C41.8645 47.9851 41.6998 47.8268 41.5809 47.6359L34.7165 36.6599C34.5259 36.3549 34.4642 35.9867 34.5448 35.6363C34.6255 35.2858 34.8419 34.9817 35.1465 34.7906C35.2971 34.6955 35.465 34.6312 35.6405 34.6013C35.8161 34.5714 35.9958 34.5765 36.1694 34.6164C36.3429 34.6563 36.5069 34.7301 36.6518 34.8336C36.7966 34.9371 36.9196 35.0683 37.0136 35.2196L42.1656 43.4628C42.2325 43.5653 42.3243 43.6492 42.4324 43.7068C42.5405 43.7643 42.6614 43.7937 42.7838 43.792C42.9039 43.7926 43.0222 43.7633 43.1282 43.7068C43.2341 43.6503 43.3244 43.5684 43.3909 43.4683L44.1748 42.2868C44.229 42.2075 44.2667 42.1182 44.286 42.0242C44.3052 41.9301 44.3055 41.8332 44.2868 41.7391L40.4318 22.4437C40.3621 22.0911 40.4348 21.7252 40.6339 21.426C40.8331 21.1268 41.1425 20.9185 41.4947 20.8466C41.5894 20.8276 41.6859 20.8182 41.7825 20.8186C42.0932 20.8217 42.3931 20.9323 42.6314 21.1316C42.8697 21.3309 43.0316 21.6066 43.0896 21.9117L47.1216 42.056C47.1917 42.4087 47.1192 42.7748 46.92 43.0741L43.8612 47.6661C43.7378 47.8522 43.5702 48.0048 43.3734 48.1103C43.1766 48.2158 42.9567 48.271 42.7334 48.2709L42.7009 48.272Z" fill="white"/>
</svg>
