<svg width="64" height="64" viewBox="0 0 64 64" fill="none" xmlns="http://www.w3.org/2000/svg">
<path d="M53.5978 6.15649H48.7691C48.3849 6.15649 48.0165 6.30911 47.7448 6.58078C47.4731 6.85244 47.3205 7.2209 47.3205 7.60509C47.3205 7.98928 47.4731 8.35773 47.7448 8.6294C48.0165 8.90106 48.3849 9.05368 48.7691 9.05368H52.1492V56.8572H11.5886V9.05368H14.9686C15.3528 9.05368 15.7213 8.90106 15.9929 8.6294C16.2646 8.35773 16.4172 7.98928 16.4172 7.60509C16.4172 7.2209 16.2646 6.85244 15.9929 6.58078C15.7213 6.30911 15.3528 6.15649 14.9686 6.15649H10.14C9.75581 6.15649 9.38735 6.30911 9.11569 6.58078C8.84403 6.85244 8.69141 7.2209 8.69141 7.60509V58.3058C8.69141 58.69 8.84403 59.0585 9.11569 59.3301C9.38735 59.6018 9.75581 59.7544 10.14 59.7544H53.5978C53.982 59.7544 54.3504 59.6018 54.6221 59.3301C54.8937 59.0585 55.0464 58.69 55.0464 58.3058V7.60509C55.0464 7.2209 54.8937 6.85244 54.6221 6.58078C54.3504 6.30911 53.982 6.15649 53.5978 6.15649Z" fill="#0F3290"/>
<path d="M43.9406 47.2H36.6976C36.3134 47.2 35.945 47.3526 35.6733 47.6242C35.4016 47.8959 35.249 48.2644 35.249 48.6485C35.249 49.0327 35.4016 49.4012 35.6733 49.6729C35.945 49.9445 36.3134 50.0971 36.6976 50.0971H43.9406C44.3248 50.0971 44.6932 49.9445 44.9649 49.6729C45.2366 49.4012 45.3892 49.0327 45.3892 48.6485C45.3892 48.2644 45.2366 47.8959 44.9649 47.6242C44.6932 47.3526 44.3248 47.2 43.9406 47.2Z" fill="#0F3290"/>
<path d="M22.2418 52.1239C22.5097 52.3734 22.862 52.5123 23.2281 52.5126H23.3078C23.5027 52.5018 23.6934 52.4518 23.8685 52.3655C24.0435 52.2792 24.1994 52.1584 24.3266 52.0104L30.5531 44.7674C30.8037 44.4761 30.9282 44.0971 30.8993 43.714C30.8705 43.3308 30.6906 42.9748 30.3992 42.7243C30.1079 42.4738 29.7289 42.3493 29.3458 42.3781C28.9626 42.407 28.6066 42.5869 28.3561 42.8782L23.1122 48.9792L20.7824 46.8136C20.6444 46.6769 20.4804 46.5694 20.3001 46.4974C20.1197 46.4255 19.9268 46.3905 19.7326 46.3945C19.5385 46.3986 19.3472 46.4417 19.17 46.5212C18.9929 46.6007 18.8335 46.715 18.7014 46.8573C18.5693 46.9996 18.4671 47.167 18.401 47.3495C18.3349 47.5321 18.3062 47.7261 18.3165 47.92C18.3269 48.1139 18.3761 48.3037 18.4612 48.4782C18.5464 48.6527 18.6658 48.8083 18.8123 48.9357L22.2418 52.1239Z" fill="#0F3290"/>
<path d="M43.9406 35.1284H36.6976C36.3134 35.1284 35.945 35.281 35.6733 35.5527C35.4016 35.8244 35.249 36.1928 35.249 36.577C35.249 36.9612 35.4016 37.3297 35.6733 37.6013C35.945 37.873 36.3134 38.0256 36.6976 38.0256H43.9406C44.3248 38.0256 44.6932 37.873 44.9649 37.6013C45.2366 37.3297 45.3892 36.9612 45.3892 36.577C45.3892 36.1928 45.2366 35.8244 44.9649 35.5527C44.6932 35.281 44.3248 35.1284 43.9406 35.1284Z" fill="#0F3290"/>
<path d="M22.2418 40.0523C22.5097 40.3018 22.862 40.4407 23.2281 40.441H23.3078C23.5027 40.4303 23.6934 40.3802 23.8685 40.2939C24.0435 40.2076 24.1994 40.0869 24.3266 39.9388L30.5531 32.6959C30.6772 32.5516 30.7716 32.3843 30.831 32.2036C30.8904 32.0228 30.9136 31.8322 30.8993 31.6425C30.885 31.4527 30.8335 31.2677 30.7477 31.0979C30.6619 30.9281 30.5435 30.7768 30.3992 30.6528C30.255 30.5287 30.0877 30.4343 29.9069 30.3749C29.7262 30.3155 29.5355 30.2923 29.3458 30.3066C29.1561 30.3209 28.971 30.3724 28.8012 30.4582C28.6314 30.544 28.4801 30.6624 28.3561 30.8067L23.1122 36.9077L20.7824 34.742C20.6444 34.6054 20.4804 34.4979 20.3001 34.4259C20.1197 34.3539 19.9268 34.3189 19.7326 34.323C19.5385 34.3271 19.3472 34.3701 19.17 34.4496C18.9929 34.5291 18.8335 34.6434 18.7014 34.7857C18.5693 34.928 18.4671 35.0954 18.401 35.278C18.3349 35.4606 18.3062 35.6546 18.3165 35.8485C18.3269 36.0423 18.3761 36.2322 18.4612 36.4067C18.5464 36.5812 18.6658 36.7368 18.8123 36.8642L22.2418 40.0523Z" fill="#0F3290"/>
<path d="M35.249 24.5052C35.249 24.8894 35.4016 25.2579 35.6733 25.5295C35.945 25.8012 36.3134 25.9538 36.6976 25.9538H43.9406C44.3248 25.9538 44.6932 25.8012 44.9649 25.5295C45.2366 25.2579 45.3892 24.8894 45.3892 24.5052C45.3892 24.121 45.2366 23.7526 44.9649 23.4809C44.6932 23.2093 44.3248 23.0566 43.9406 23.0566H36.6976C36.3134 23.0566 35.945 23.2093 35.6733 23.4809C35.4016 23.7526 35.249 24.121 35.249 24.5052Z" fill="#0F3290"/>
<path d="M22.2418 27.9808C22.5097 28.2303 22.862 28.3692 23.2281 28.3695H23.3078C23.5027 28.3588 23.6934 28.3087 23.8685 28.2224C24.0435 28.1361 24.1994 28.0154 24.3266 27.8673L30.5531 20.6244C30.6772 20.4801 30.7716 20.3128 30.831 20.1321C30.8904 19.9513 30.9136 19.7606 30.8993 19.5709C30.885 19.3812 30.8335 19.1962 30.7477 19.0263C30.6619 18.8565 30.5435 18.7053 30.3992 18.5812C30.255 18.4572 30.0877 18.3628 29.9069 18.3034C29.7262 18.244 29.5355 18.2208 29.3458 18.2351C29.1561 18.2493 28.971 18.3009 28.8012 18.3867C28.6314 18.4725 28.4801 18.5909 28.3561 18.7352L23.1122 24.8361L20.7824 22.6705C20.6444 22.5339 20.4804 22.4264 20.3001 22.3544C20.1197 22.2824 19.9268 22.2474 19.7326 22.2515C19.5385 22.2556 19.3472 22.2986 19.17 22.3781C18.9929 22.4576 18.8335 22.5719 18.7014 22.7142C18.5693 22.8565 18.4671 23.0239 18.401 23.2065C18.3349 23.389 18.3062 23.583 18.3165 23.7769C18.3269 23.9708 18.3761 24.1607 18.4612 24.3352C18.5464 24.5097 18.6658 24.6652 18.8123 24.7927L22.2418 27.9808Z" fill="#0F3290"/>
<path d="M22.2118 13.8823H41.5263C41.9105 13.8823 42.279 13.7297 42.5506 13.458C42.8223 13.1864 42.9749 12.8179 42.9749 12.4337V5.19078C42.9749 4.80659 42.8223 4.43813 42.5506 4.16647C42.279 3.89481 41.9105 3.74219 41.5263 3.74219H22.2118C21.8276 3.74219 21.4591 3.89481 21.1875 4.16647C20.9158 4.43813 20.7632 4.80659 20.7632 5.19078V12.4337C20.7632 12.8179 20.9158 13.1864 21.1875 13.458C21.4591 13.7297 21.8276 13.8823 22.2118 13.8823ZM23.6604 6.63937H40.0777V10.9851H23.6604V6.63937Z" fill="#0F3290"/>
</svg>
