<svg width="57" height="54" viewBox="0 0 57 54" fill="none" xmlns="http://www.w3.org/2000/svg">
<path d="M26.2106 48.466H11.6047C10.788 48.4654 10.0048 48.1397 9.42733 47.5604C8.84983 46.981 8.52514 46.1954 8.52459 45.3761V44.6639H22.0002C22.3352 44.6639 22.6566 44.5304 22.8935 44.2928C23.1304 44.0551 23.2635 43.7327 23.2635 43.3966C23.2635 43.0605 23.1304 42.7381 22.8935 42.5004C22.6566 42.2628 22.3352 42.1292 22.0002 42.1292H8.52459V10.8708H35.4751V18.0524C35.4711 18.2212 35.5009 18.3891 35.5625 18.5462C35.6242 18.7033 35.7165 18.8464 35.8341 18.9672C35.9517 19.0879 36.0922 19.1839 36.2473 19.2494C36.4025 19.315 36.5691 19.3487 36.7374 19.3487C36.9057 19.3487 37.0723 19.315 37.2274 19.2494C37.3825 19.1839 37.523 19.0879 37.6406 18.9672C37.7582 18.8464 37.8505 18.7033 37.9122 18.5462C37.9739 18.3891 38.0036 18.2212 37.9997 18.0524V7.62317C37.9984 6.13233 37.4075 4.7029 36.3567 3.64866C35.3059 2.59441 33.8811 2.00147 32.395 2H11.6047C10.1185 2.00147 8.69373 2.59441 7.64295 3.64866C6.59216 4.7029 6.00128 6.13233 6 7.62317V45.3761C6.0011 46.8671 6.5919 48.2967 7.6427 49.3511C8.6935 50.4055 10.1184 50.9985 11.6047 51H26.2106C26.5457 51 26.867 50.8665 27.1039 50.6288C27.3408 50.3911 27.4739 50.0688 27.4739 49.7327C27.4739 49.3965 27.3408 49.0742 27.1039 48.8365C26.867 48.5988 26.5457 48.4653 26.2106 48.4653V48.466ZM11.6047 4.5347H32.395C33.2115 4.53525 33.9944 4.86077 34.5718 5.43982C35.1493 6.01886 35.4741 6.8041 35.4751 7.62317V8.33605H8.52459V7.62317C8.52551 6.8041 8.85036 6.01886 9.42782 5.43982C10.0053 4.86077 10.7882 4.53525 11.6047 4.5347Z" fill="white"/>
<path d="M41 23C33.2794 23 27 29.2804 27 37.0003C27 44.7203 33.2808 51 41 51C48.7192 51 55 44.7196 55 37.0003C55 29.2811 48.7212 23 41 23ZM41 48.4544C34.6836 48.4544 29.5444 43.3163 29.5444 37.0003C29.5444 30.6844 34.6836 25.547 41 25.547C47.3164 25.547 52.4563 30.6851 52.4563 37.001C52.4563 43.317 47.3164 48.4544 41 48.4544Z" fill="white"/>
<path d="M45.7304 36.0401H42.7696V33.2313C42.7735 33.071 42.7436 32.9115 42.6817 32.7623C42.6197 32.6131 42.5269 32.4771 42.4087 32.3624C42.2905 32.2477 42.1493 32.1565 41.9935 32.0943C41.8376 32.0321 41.6702 32 41.501 32C41.3319 32 41.1645 32.0321 41.0086 32.0943C40.8527 32.1565 40.7116 32.2477 40.5934 32.3624C40.4752 32.4771 40.3824 32.6131 40.3204 32.7623C40.2585 32.9115 40.2286 33.071 40.2325 33.2313V36.0401H37.2696C36.9328 36.0401 36.6099 36.1669 36.3718 36.3927C36.1338 36.6184 36 36.9246 36 37.2439C36 37.5631 36.1338 37.8693 36.3718 38.0951C36.6099 38.3208 36.9328 38.4476 37.2696 38.4476H40.2318V40.7687C40.2279 40.929 40.2578 41.0885 40.3197 41.2377C40.3817 41.3869 40.4745 41.5229 40.5927 41.6376C40.7109 41.7523 40.852 41.8435 41.0079 41.9057C41.1638 41.9679 41.3312 42 41.5003 42C41.6695 42 41.8369 41.9679 41.9928 41.9057C42.1486 41.8435 42.2898 41.7523 42.408 41.6376C42.5262 41.5229 42.619 41.3869 42.681 41.2377C42.7429 41.0885 42.7728 40.929 42.7689 40.7687V38.4476H45.7304C46.0672 38.4476 46.3901 38.3208 46.6282 38.0951C46.8662 37.8693 47 37.5631 47 37.2439C47 36.9246 46.8662 36.6184 46.6282 36.3927C46.3901 36.1669 46.0672 36.0401 45.7304 36.0401Z" fill="white"/>
</svg>
