<svg width="64" height="64" viewBox="0 0 64 64" fill="none" xmlns="http://www.w3.org/2000/svg">
<path d="M51.1999 4.86401C49.3771 4.86401 47.5953 5.40452 46.0798 6.41719C44.5642 7.42986 43.383 8.8692 42.6854 10.5532C41.9879 12.2372 41.8054 14.0902 42.161 15.878C42.5166 17.6657 43.3943 19.3078 44.6832 20.5967C45.9721 21.8856 47.6142 22.7633 49.4019 23.1189C51.1897 23.4745 53.0427 23.292 54.7267 22.5945C56.4107 21.8969 57.8501 20.7157 58.8627 19.2001C59.8754 17.6846 60.4159 15.9028 60.4159 14.08C60.4135 11.6365 59.4418 9.29376 57.714 7.56594C55.9862 5.83812 53.6434 4.86639 51.1999 4.86401ZM51.1999 20.224C49.9847 20.224 48.7968 19.8637 47.7865 19.1886C46.7761 18.5134 45.9886 17.5539 45.5236 16.4312C45.0586 15.3085 44.9369 14.0732 45.1739 12.8814C45.411 11.6896 45.9962 10.5948 46.8554 9.73555C47.7147 8.8763 48.8094 8.29114 50.0013 8.05407C51.1931 7.817 52.4284 7.93867 53.5511 8.4037C54.6738 8.86872 55.6333 9.65621 56.3085 10.6666C56.9836 11.677 57.3439 12.8648 57.3439 14.08C57.3415 15.7088 56.6935 17.2701 55.5417 18.4219C54.39 19.5736 52.8287 20.2216 51.1999 20.224Z" fill="#0F3290"/>
<path d="M51.2 36.3443C50.7926 36.3443 50.4019 36.5061 50.1139 36.7942C49.8258 37.0822 49.664 37.4729 49.664 37.8803V55.0399C49.664 55.9905 49.2864 56.9021 48.6143 57.5742C47.9421 58.2463 47.0305 58.6239 46.08 58.6239C45.1295 58.6239 44.2178 58.2463 43.5457 57.5742C42.8736 56.9021 42.496 55.9905 42.496 55.0399V47.3599C42.496 45.5947 41.7947 43.9017 40.5465 42.6534C39.2982 41.4052 37.6053 40.7039 35.84 40.7039C34.0747 40.7039 32.3817 41.4052 31.1335 42.6534C29.8852 43.9017 29.184 45.5947 29.184 47.3599V55.0399C29.184 55.9905 28.8064 56.9021 28.1343 57.5742C27.4621 58.2463 26.5505 58.6239 25.6 58.6239C24.6495 58.6239 23.7378 58.2463 23.0657 57.5742C22.3936 56.9021 22.016 55.9905 22.016 55.0399V40.4889C25.1277 38.3001 37.376 29.056 37.376 19.2V10.24C37.376 8.81415 36.8096 7.44674 35.8014 6.43855C34.7932 5.43035 33.4258 4.86395 32 4.86395H27.136V3.83995C27.136 3.63824 27.0963 3.43851 27.0191 3.25215C26.9419 3.0658 26.8287 2.89647 26.6861 2.75384C26.5435 2.61121 26.3741 2.49807 26.1878 2.42088C26.0014 2.34368 25.8017 2.30396 25.6 2.30396C25.3983 2.30396 25.1985 2.34368 25.0122 2.42088C24.8258 2.49807 24.6565 2.61121 24.5139 2.75384C24.3712 2.89647 24.2581 3.0658 24.1809 3.25215C24.1037 3.43851 24.064 3.63824 24.064 3.83995V11.52C24.064 11.7217 24.1037 11.9214 24.1809 12.1078C24.2581 12.2941 24.3712 12.4634 24.5139 12.6061C24.6565 12.7487 24.8258 12.8618 25.0122 12.939C25.1985 13.0162 25.3983 13.056 25.6 13.056C25.8017 13.056 26.0014 13.0162 26.1878 12.939C26.3741 12.8618 26.5435 12.7487 26.6861 12.6061C26.8287 12.4634 26.9419 12.2941 27.0191 12.1078C27.0963 11.9214 27.136 11.7217 27.136 11.52V7.93595H32C32.611 7.93595 33.1971 8.1787 33.6292 8.61078C34.0612 9.04286 34.304 9.62889 34.304 10.24V19.2C34.304 27.2806 23.5776 35.575 20.48 37.8035C17.3811 35.575 6.65598 27.2806 6.65598 19.2V10.24C6.65598 9.62889 6.89873 9.04286 7.33081 8.61078C7.76289 8.1787 8.34893 7.93595 8.95998 7.93595H13.824V11.52C13.824 11.9273 13.9858 12.318 14.2739 12.6061C14.5619 12.8941 14.9526 13.056 15.36 13.056C15.7674 13.056 16.158 12.8941 16.4461 12.6061C16.7342 12.318 16.896 11.9273 16.896 11.52V3.83995C16.896 3.43258 16.7342 3.04189 16.4461 2.75384C16.158 2.46578 15.7674 2.30396 15.36 2.30396C14.9526 2.30396 14.5619 2.46578 14.2739 2.75384C13.9858 3.04189 13.824 3.43258 13.824 3.83995V4.86395H8.95998C7.53418 4.86395 6.16677 5.43035 5.15858 6.43855C4.15038 7.44674 3.58398 8.81415 3.58398 10.24V19.2C3.58398 29.0854 15.8822 38.3372 18.944 40.4876V55.0399C18.944 56.8052 19.6452 58.4982 20.8935 59.7464C22.1417 60.9947 23.8347 61.6959 25.6 61.6959C27.3653 61.6959 29.0582 60.9947 30.3065 59.7464C31.5547 58.4982 32.256 56.8052 32.256 55.0399V47.3599C32.256 46.4094 32.6336 45.4978 33.3057 44.8257C33.9778 44.1535 34.8895 43.7759 35.84 43.7759C36.7905 43.7759 37.7021 44.1535 38.3743 44.8257C39.0464 45.4978 39.424 46.4094 39.424 47.3599V55.0399C39.424 56.8052 40.1252 58.4982 41.3735 59.7464C42.6217 60.9947 44.3147 61.6959 46.08 61.6959C47.8453 61.6959 49.5382 60.9947 50.7865 59.7464C52.0347 58.4982 52.736 56.8052 52.736 55.0399V37.8803C52.736 37.4729 52.5742 37.0822 52.2861 36.7942C51.998 36.5061 51.6074 36.3443 51.2 36.3443Z" fill="#0F3290"/>
<path d="M51.2001 25.9097C50.7927 25.9097 50.402 26.0715 50.1139 26.3596C49.8259 26.6476 49.6641 27.0383 49.6641 27.4457V31.9999C49.6641 32.4073 49.8259 32.798 50.1139 33.086C50.402 33.3741 50.7927 33.5359 51.2001 33.5359C51.6074 33.5359 51.9981 33.3741 52.2862 33.086C52.5742 32.798 52.7361 32.4073 52.7361 31.9999V27.4457C52.7361 27.0383 52.5742 26.6476 52.2862 26.3596C51.9981 26.0715 51.6074 25.9097 51.2001 25.9097Z" fill="#0F3290"/>
</svg>
