<svg width="67" height="68" viewBox="0 0 67 68" fill="none" xmlns="http://www.w3.org/2000/svg">
<path d="M64.0929 39.461L54.3579 33.8685L64.1064 28.2714C64.7156 27.9211 65.16 27.3446 65.3419 26.6687C65.5239 25.9928 65.4285 25.2726 65.0768 24.6666L57.2285 11.1675C56.8762 10.5618 56.2965 10.12 55.6167 9.93903C54.9369 9.75811 54.2127 9.85294 53.6031 10.2027L43.8591 15.8042V4.6101C43.8579 3.91071 43.5776 3.24038 43.0798 2.74626C42.5821 2.25214 41.9074 1.97461 41.2041 1.97461H25.5345C25.186 1.97403 24.8409 2.04176 24.5188 2.17394C24.1967 2.30613 23.904 2.50016 23.6574 2.74495C23.4108 2.98973 23.2151 3.28047 23.0816 3.60051C22.9482 3.92055 22.8795 4.26363 22.8795 4.6101V15.8042L13.1309 10.2072C12.5226 9.85725 11.7995 9.76186 11.1205 9.94195C10.4415 10.122 9.86221 10.5629 9.51001 11.1675L1.67073 24.6666C1.31937 25.2732 1.22468 25.9937 1.40749 26.6697C1.5903 27.3457 2.03565 27.9218 2.64559 28.2714L12.3897 33.8685L2.64559 39.461C2.03565 39.8106 1.5903 40.3867 1.40749 41.0627C1.22468 41.7387 1.31937 42.4593 1.67073 43.0659L9.51001 56.5604C9.6836 56.8606 9.91509 57.1238 10.1912 57.3349C10.4673 57.546 10.7826 57.7007 11.119 57.7904C11.4554 57.88 11.8063 57.9027 12.1515 57.8573C12.4968 57.8118 12.8296 57.699 13.1309 57.5253L22.8795 51.9327V63.1C22.8795 63.4465 22.9482 63.7896 23.0816 64.1096C23.2151 64.4296 23.4108 64.7204 23.6574 64.9652C23.904 65.2099 24.1967 65.404 24.5188 65.5362C24.8409 65.6683 25.186 65.7361 25.5345 65.7355H41.2041C41.9074 65.7355 42.5821 65.458 43.0798 64.9639C43.5776 64.4697 43.8579 63.7994 43.8591 63.1V51.9282L53.6031 57.5253C53.9048 57.6991 54.238 57.812 54.5835 57.8575C54.9291 57.9031 55.2804 57.8804 55.6171 57.7907C55.9539 57.7011 56.2696 57.5463 56.5461 57.3352C56.8226 57.1241 57.0545 56.8608 57.2285 56.5604L65.0633 43.0659C65.4151 42.4598 65.5104 41.7397 65.3285 41.0638C65.1465 40.3878 64.7021 39.8114 64.0929 39.461Z" fill="white"/>
<path d="M41.2042 4.43147C41.2523 4.43146 41.2985 4.45014 41.3329 4.48352C41.3673 4.51691 41.3872 4.56235 41.3884 4.61015V20.0568L42.7361 19.284L54.8387 12.3335C54.8669 12.3202 54.8974 12.3127 54.9286 12.3111H54.978C55.0015 12.317 55.0236 12.3276 55.0429 12.3421C55.0622 12.3567 55.0783 12.3751 55.0903 12.396L62.9251 25.9084C62.9345 25.9295 62.9394 25.9524 62.9394 25.9755C62.9394 25.9985 62.9345 26.0214 62.9251 26.0425C62.9122 26.0893 62.8816 26.1293 62.8397 26.1541L50.7641 33.0957L49.4164 33.8685L50.7641 34.6413L62.8712 41.5918C62.8925 41.6024 62.9111 41.6174 62.9259 41.636C62.9406 41.6545 62.9511 41.676 62.9565 41.699C62.9743 41.7435 62.9743 41.793 62.9565 41.8375L55.1217 55.3321C55.0982 55.3732 55.0595 55.4036 55.0139 55.417H54.96C54.9306 55.4252 54.8996 55.4252 54.8702 55.417L42.7361 48.4486L41.3884 47.6758V63.1224C41.3872 63.1702 41.3673 63.2156 41.3329 63.249C41.2985 63.2824 41.2523 63.3011 41.2042 63.3011H25.5347C25.5107 63.3017 25.4868 63.2975 25.4645 63.2888C25.4422 63.2801 25.4218 63.267 25.4047 63.2504C25.3875 63.2337 25.3739 63.2138 25.3646 63.1918C25.3552 63.1699 25.3505 63.1463 25.3505 63.1224V47.6758L24.0027 48.4486L11.8957 55.3902C11.8663 55.3988 11.8351 55.3988 11.8058 55.3902C11.7741 55.39 11.7429 55.3817 11.7154 55.366C11.6878 55.3504 11.6648 55.3279 11.6486 55.3008L3.81378 41.8375C3.80409 41.8165 3.79908 41.7936 3.79908 41.7705C3.79908 41.7474 3.80409 41.7245 3.81378 41.7035C3.8189 41.6798 3.82921 41.6575 3.84396 41.6382C3.85871 41.6189 3.87755 41.6031 3.89914 41.5918L15.9838 34.6413L17.3315 33.8685L15.9838 33.0957L3.87668 26.1452C3.83647 26.1195 3.80757 26.0796 3.79581 26.0335C3.78603 26.0117 3.78097 25.9881 3.78097 25.9643C3.78097 25.9404 3.78603 25.9168 3.79581 25.8951L11.6486 12.4005C11.6606 12.3795 11.6767 12.3612 11.696 12.3466C11.7153 12.332 11.7374 12.3215 11.7609 12.3156H11.8058C11.8371 12.3162 11.8678 12.3238 11.8957 12.3379L24.0252 19.2885L25.3729 20.0612V4.61015C25.3729 4.5863 25.3777 4.5627 25.387 4.54072C25.3963 4.51875 25.41 4.49885 25.4271 4.4822C25.4443 4.46555 25.4646 4.45248 25.487 4.44377C25.5093 4.43506 25.5331 4.43087 25.5571 4.43147H41.2042ZM41.2042 3.53809H25.5347C25.2483 3.53808 24.9736 3.65089 24.7707 3.85181C24.5678 4.05274 24.4532 4.32541 24.452 4.61015V18.5112L12.3449 11.5607C12.1808 11.4672 11.9949 11.4179 11.8058 11.4177C11.7119 11.4189 11.6184 11.4309 11.5273 11.4535C11.2509 11.5279 11.0152 11.7076 10.8714 11.9538L3.03659 25.4618C2.89407 25.7086 2.85517 26.0013 2.92834 26.2764C3.00151 26.5515 3.18085 26.7869 3.42744 26.9314L15.557 33.8819L3.43193 40.819C3.30827 40.8885 3.19977 40.9818 3.11277 41.0934C3.02576 41.205 2.962 41.3328 2.92519 41.4692C2.88839 41.6056 2.87928 41.7479 2.89841 41.8878C2.91754 42.0278 2.96451 42.1625 3.03659 42.2842L10.8714 55.7788C10.9657 55.9422 11.1019 56.0778 11.266 56.172C11.4301 56.2661 11.6163 56.3154 11.8058 56.3148C11.9951 56.3161 12.1813 56.2667 12.3449 56.1719L24.4744 49.2213V63.1224C24.4744 63.2636 24.5025 63.4033 24.5569 63.5337C24.6114 63.6641 24.6912 63.7824 24.7918 63.8821C24.8924 63.9817 25.0118 64.0605 25.1431 64.1141C25.2745 64.1678 25.4151 64.1951 25.5571 64.1945H41.2042C41.3462 64.1951 41.4869 64.1678 41.6182 64.1141C41.7495 64.0605 41.8689 63.9817 41.9695 63.8821C42.0701 63.7824 42.1499 63.6641 42.2044 63.5337C42.2589 63.4033 42.2869 63.2636 42.2869 63.1224V49.2213L54.3895 56.1719C54.5538 56.2648 54.7395 56.314 54.9286 56.3148C55.0241 56.3161 55.1194 56.3041 55.2116 56.2791C55.3491 56.2438 55.4781 56.1814 55.5908 56.0954C55.7035 56.0095 55.7976 55.9018 55.8675 55.7788L63.7023 42.2842C63.8456 42.0371 63.8845 41.7436 63.8104 41.4681C63.7363 41.1925 63.5552 40.9575 63.3069 40.8146L51.2133 33.8685L63.3204 26.918C63.5628 26.7729 63.7384 26.5394 63.8098 26.2672C63.8811 25.9951 63.8425 25.706 63.7023 25.4618L55.8675 11.9538C55.7236 11.7076 55.4879 11.5279 55.2116 11.4535C55.119 11.4306 55.024 11.4186 54.9286 11.4177C54.7395 11.4186 54.5538 11.4678 54.3895 11.5607L42.2869 18.5112V4.61015C42.2857 4.32541 42.1711 4.05274 41.9682 3.85181C41.7653 3.65089 41.4906 3.53808 41.2042 3.53809Z" fill="#203A80"/>
<path d="M30.4718 50.8921C29.9297 50.6086 29.4769 50.1815 29.1637 49.658C28.8505 49.1345 28.6891 48.5351 28.6973 47.926C28.7403 47.2722 28.9572 46.6415 29.3258 46.0983C29.6945 45.5552 30.2016 45.1192 30.7953 44.8349C31.4742 44.5058 32.1866 44.2498 32.9202 44.0711C35.0137 43.4725 36.2761 42.9946 36.2221 41.3909C36.1682 39.6354 34.4791 39.1575 31.5051 38.4472L30.3865 38.1792C28.6839 37.7325 27.5293 36.5667 27.3002 34.9988C27.1941 34.2602 27.3113 33.507 27.6369 32.8349C27.9625 32.1628 28.4817 31.6021 29.1286 31.2242C31.4692 29.8439 36.8062 27.1816 36.8062 27.1816C36.7343 27.2129 32.0352 30.8892 29.7396 32.2471C29.2922 32.5042 28.9329 32.8892 28.7086 33.3521C28.4842 33.815 28.4052 34.3343 28.4817 34.8424C28.5794 35.3875 28.8421 35.89 29.2347 36.2827C29.6272 36.6754 30.1309 36.9396 30.6785 37.0401L31.7791 37.3082C34.6318 37.9827 37.3273 38.617 37.4171 41.3641C37.5025 44.0086 35.144 44.6831 33.2527 45.2236C32.6032 45.383 31.9712 45.606 31.3658 45.8891C30.9576 46.0768 30.6061 46.3679 30.3467 46.7333C30.0873 47.0986 29.929 47.5254 29.8878 47.9707C29.8975 48.3693 30.0142 48.758 30.2259 49.0965C30.4376 49.4351 30.7366 49.7111 31.0918 49.896C32.8619 50.9303 34.8105 51.6271 36.8376 51.9508C36.8376 51.9508 32.4081 51.9954 30.4718 50.8921Z" fill="#203A80"/>
<path d="M41.2265 29.9018L41.55 25.7967C41.5572 25.7448 41.5774 25.6954 41.6088 25.6533C41.6402 25.6111 41.6818 25.5775 41.7297 25.5555L42.6282 25.1401C42.654 25.1281 42.6765 25.1101 42.6937 25.0875C42.7109 25.0649 42.7224 25.0385 42.727 25.0106L43.0504 24.1574C43.0609 24.1299 43.0653 24.1005 43.0636 24.0712C43.0619 24.0419 43.054 24.0133 43.0405 23.9871C43.0269 23.961 43.008 23.9381 42.985 23.9197C42.9619 23.9013 42.9353 23.8879 42.9067 23.8804L42.0082 23.6437C41.983 23.6315 41.9554 23.6251 41.9273 23.6251C41.8993 23.6251 41.8717 23.6315 41.8465 23.6437L40.948 24.1485C40.902 24.1739 40.8502 24.1872 40.7975 24.1872C40.7448 24.1872 40.693 24.1739 40.647 24.1485L37.098 22.0267C37.0261 21.9731 36.9003 22.0267 36.8195 22.1205L36.7521 22.2053C36.6667 22.3081 36.6532 22.4376 36.7206 22.4957L38.6344 25.0374C38.6679 25.0759 38.6925 25.1212 38.7065 25.1701C38.7204 25.2191 38.7235 25.2705 38.7153 25.3207C38.7072 25.371 38.6881 25.4188 38.6594 25.4609C38.6306 25.503 38.593 25.5384 38.549 25.5645L37.7359 26.0335C37.65 26.0818 37.5506 26.1006 37.4529 26.0871L36.1052 25.8861C36.0737 25.8861 36.0378 25.8861 36.0243 25.9576V25.9978C36.0166 26.0177 36.016 26.0396 36.0226 26.0599C36.0291 26.0802 36.0424 26.0976 36.0602 26.1094L37.408 26.8643L37.4304 26.9045L37.2732 28.4188C37.2732 28.4501 37.2732 28.4903 37.3451 28.5082H37.3855C37.4304 28.5082 37.4798 28.5082 37.4888 28.4858L38.0953 27.2932C38.1408 27.207 38.2134 27.138 38.302 27.0966L39.1645 26.708C39.2109 26.6868 39.2615 26.6761 39.3126 26.6766C39.3637 26.6772 39.4141 26.689 39.46 26.7112C39.506 26.7334 39.5464 26.7655 39.5784 26.8051C39.6105 26.8447 39.6333 26.8909 39.6452 26.9403L40.62 29.9286C40.62 30.018 40.7413 30.0805 40.8761 30.0761H40.9884C41.1187 30.0671 41.2265 29.9912 41.2265 29.9018Z" fill="#203A80"/>
<path d="M35.813 17.6668C35.813 17.0223 35.5556 16.4043 35.0973 15.9485C34.6389 15.4928 34.0173 15.2368 33.3692 15.2368C32.721 15.2368 32.0994 15.4928 31.6411 15.9485C31.1828 16.4043 30.9253 17.0223 30.9253 17.6668C30.9307 18.1618 31.1012 18.641 31.4102 19.029C31.7192 19.4171 32.1491 19.6922 32.6324 19.8109L32.9109 55.9439H33.8094L34.0924 19.8109C35.0628 19.7127 35.813 18.5959 35.813 17.6668Z" fill="#203A80"/>
</svg>
