<svg width="16" height="18" viewBox="0 0 16 18" fill="none" xmlns="http://www.w3.org/2000/svg">
<path d="M15 5.0625V12.9375C15 13.3851 14.842 13.8143 14.5607 14.1307C14.2794 14.4472 13.8978 14.625 13.5 14.625H2.5C2.10218 14.625 1.72064 14.4472 1.43934 14.1307C1.15804 13.8143 1 13.3851 1 12.9375V5.0625C1.00162 4.87013 1.03379 4.67963 1.095 4.5L7.17 9.05625C7.41597 9.24007 7.7047 9.33813 8 9.33813C8.2953 9.33813 8.58403 9.24007 8.83 9.05625L14.905 4.5C14.9662 4.67963 14.9984 4.87013 15 5.0625ZM8.275 8.11688L14.275 3.61688C14.0411 3.45839 13.7731 3.37476 13.5 3.375H2.5C2.22814 3.37747 1.96199 3.46302 1.73 3.6225L7.73 8.1225C7.81159 8.18098 7.90651 8.21157 8.00324 8.21057C8.09998 8.20957 8.19438 8.17703 8.275 8.11688Z" fill="white"/>
</svg>
