<svg width="44" height="30" viewBox="0 0 44 30" fill="none" xmlns="http://www.w3.org/2000/svg">
<path d="M8.8 30C5.8 30 3.6 29.3333 2.2 28C0.866667 26.6 0.2 24.8667 0.2 22.8V20.7C0.2 18.7667 0.466667 16.8333 1 14.9C1.6 12.9 2.36667 11 3.3 9.2C4.3 7.4 5.46667 5.73333 6.8 4.2C8.13333 2.6 9.56667 1.2 11.1 -9.53674e-07H20.4C18.2 2 16.3 4.03333 14.7 6.1C13.1667 8.16667 12 10.4667 11.2 13C13.3333 13.4 14.9 14.3 15.9 15.7C16.9 17.0333 17.4 18.5667 17.4 20.3V22.8C17.4 24.8667 16.7 26.6 15.3 28C13.9667 29.3333 11.8 30 8.8 30ZM32.3 30C29.3 30 27.1 29.3333 25.7 28C24.3667 26.6 23.7 24.8667 23.7 22.8V20.7C23.7 18.7667 23.9667 16.8333 24.5 14.9C25.1 12.9 25.8667 11 26.8 9.2C27.8 7.4 28.9667 5.73333 30.3 4.2C31.6333 2.6 33.0667 1.2 34.6 -9.53674e-07H43.9C41.7 2 39.8 4.03333 38.2 6.1C36.6667 8.16667 35.5 10.4667 34.7 13C36.8333 13.4 38.4 14.3 39.4 15.7C40.4 17.0333 40.9 18.5667 40.9 20.3V22.8C40.9 24.8667 40.2 26.6 38.8 28C37.4667 29.3333 35.3 30 32.3 30Z" fill="#FFAC27"/>
</svg>
